<?xml version="1.0" encoding="UTF-8" standalone="no"?>
<svg
   xmlns:osb="http://www.openswatchbook.org/uri/2009/osb"
   xmlns:dc="http://purl.org/dc/elements/1.1/"
   xmlns:cc="http://creativecommons.org/ns#"
   xmlns:rdf="http://www.w3.org/1999/02/22-rdf-syntax-ns#"
   xmlns:svg="http://www.w3.org/2000/svg"
   xmlns="http://www.w3.org/2000/svg"
   xmlns:xlink="http://www.w3.org/1999/xlink"
   xmlns:sodipodi="http://sodipodi.sourceforge.net/DTD/sodipodi-0.dtd"
   xmlns:inkscape="http://www.inkscape.org/namespaces/inkscape"
   version="1.1"
   id="svg2"
   viewBox="0 0 170 145"
   height="145"
   width="170"
   inkscape:version="0.91 r"
   sodipodi:docname="adelie.svg">
  <sodipodi:namedview
     pagecolor="#ffffff"
     bordercolor="#666666"
     borderopacity="1"
     objecttolerance="10"
     gridtolerance="10"
     guidetolerance="10"
     inkscape:pageopacity="0"
     inkscape:pageshadow="2"
     inkscape:window-width="1920"
     inkscape:window-height="1028"
     id="namedview167"
     showgrid="false"
     inkscape:zoom="1.1480087"
     inkscape:cx="35.668733"
     inkscape:cy="-52.486392"
     inkscape:window-x="0"
     inkscape:window-y="0"
     inkscape:window-maximized="1"
     inkscape:current-layer="svg2" />
  <defs
     id="defs4">
    <linearGradient
       id="linearGradient4100">
      <stop
         style="stop-color:#7f7f7f;stop-opacity:1;"
         offset="0"
         id="stop4102" />
      <stop
         style="stop-color:#000000;stop-opacity:1;"
         offset="1"
         id="stop4104" />
    </linearGradient>
    <linearGradient
       id="linearGradient4092">
      <stop
         style="stop-color:#000000;stop-opacity:0.49803922;"
         offset="0"
         id="stop4094" />
      <stop
         style="stop-color:#000000;stop-opacity:1;"
         offset="1"
         id="stop4096" />
    </linearGradient>
    <linearGradient
       id="linearGradient4038"
       osb:paint="solid">
      <stop
         style="stop-color:#000000;stop-opacity:1;"
         offset="0"
         id="stop4040" />
    </linearGradient>
    <linearGradient
       id="linearGradient4020">
      <stop
         style="stop-color:#606060;stop-opacity:1;"
         offset="0"
         id="stop4022" />
      <stop
         style="stop-color:#000000;stop-opacity:1;"
         offset="1"
         id="stop4024" />
    </linearGradient>
    <linearGradient
       id="linearGradient3992"
       osb:paint="solid">
      <stop
         style="stop-color:#ffffff;stop-opacity:1;"
         offset="0"
         id="stop3994" />
    </linearGradient>
    <linearGradient
       id="linearGradient3984">
      <stop
         style="stop-color:#7f7f7f;stop-opacity:1;"
         offset="0"
         id="stop3986" />
      <stop
         style="stop-color:#dfdfdf;stop-opacity:1;"
         offset="1"
         id="stop3988" />
    </linearGradient>
    <linearGradient
       id="linearGradient3960">
      <stop
         style="stop-color:#202020;stop-opacity:1;"
         offset="0"
         id="stop3962" />
      <stop
         id="stop3968"
         offset="0.71396685"
         style="stop-color:#606060;stop-opacity:1;" />
      <stop
         style="stop-color:#000000;stop-opacity:1;"
         offset="1"
         id="stop3964" />
    </linearGradient>
    <linearGradient
       id="linearGradient3948"
       osb:paint="solid">
      <stop
         style="stop-color:#dc7f25;stop-opacity:1;"
         offset="0"
         id="stop3950" />
    </linearGradient>
    <linearGradient
       id="linearGradient3936">
      <stop
         style="stop-color:#df7f20;stop-opacity:1;"
         offset="0"
         id="stop3938" />
      <stop
         style="stop-color:#ffbf60;stop-opacity:1;"
         offset="1"
         id="stop3940" />
    </linearGradient>
    <linearGradient
       id="linearGradient3930"
       osb:paint="solid">
      <stop
         style="stop-color:#ff7f00;stop-opacity:1;"
         offset="0"
         id="stop3932" />
    </linearGradient>
    <linearGradient
       id="linearGradient3922">
      <stop
         style="stop-color:#ffbf7f;stop-opacity:1;"
         offset="0"
         id="stop3924" />
      <stop
         style="stop-color:#ff7f00;stop-opacity:1;"
         offset="1"
         id="stop3926" />
    </linearGradient>
    <linearGradient
       id="linearGradient3905"
       osb:paint="gradient">
      <stop
         style="stop-color:#000000;stop-opacity:1;"
         offset="0"
         id="stop3907" />
      <stop
         style="stop-color:#000000;stop-opacity:0;"
         offset="1"
         id="stop3910" />
    </linearGradient>
    <linearGradient
       id="linearGradient4184">
      <stop
         style="stop-color:#000000;stop-opacity:1;"
         offset="0"
         id="stop4186" />
      <stop
         id="stop3944"
         offset="0.36226693"
         style="stop-color:#202020;stop-opacity:1;" />
      <stop
         style="stop-color:#000000;stop-opacity:1;"
         offset="1"
         id="stop4188" />
    </linearGradient>
    <linearGradient
       id="linearGradient4141"
       osb:paint="solid">
      <stop
         style="stop-color:#bf7f20;stop-opacity:1;"
         offset="0"
         id="stop4143" />
    </linearGradient>
    <linearGradient
       id="linearGradient3907"
       osb:paint="solid">
      <stop
         style="stop-color:#dcdcdc;stop-opacity:1;"
         offset="0"
         id="stop3909" />
    </linearGradient>
    <linearGradient
       id="linearGradient3901"
       osb:paint="solid">
      <stop
         style="stop-color:#252525;stop-opacity:1;"
         offset="0"
         id="stop3903" />
    </linearGradient>
    <linearGradient
       id="linearGradient3889"
       osb:paint="solid">
      <stop
         style="stop-color:#7f2000;stop-opacity:1;"
         offset="0"
         id="stop3891" />
    </linearGradient>
    <linearGradient
       id="linearGradient3833"
       osb:paint="solid">
      <stop
         style="stop-color:#bf2000;stop-opacity:1;"
         offset="0"
         id="stop3835" />
    </linearGradient>
    <linearGradient
       id="linearGradient3827"
       osb:paint="solid">
      <stop
         style="stop-color:#5a3f3f;stop-opacity:1;"
         offset="0"
         id="stop3829" />
    </linearGradient>
    <linearGradient
       xlink:href="#linearGradient3992"
       id="linearGradient3847"
       x1="223.93922"
       y1="349.70963"
       x2="388.26688"
       y2="349.70963"
       gradientUnits="userSpaceOnUse"
       gradientTransform="matrix(0.28407622,0,0,0.28407622,-29.341986,-62.440991)" />
    <linearGradient
       xlink:href="#linearGradient3992"
       id="linearGradient3917"
       x1="494.93781"
       y1="410.29266"
       x2="590.13641"
       y2="410.29266"
       gradientUnits="userSpaceOnUse"
       gradientTransform="matrix(0.28407622,0,0,0.28407622,-29.341986,-62.440985)" />
    <linearGradient
       xlink:href="#linearGradient3930"
       id="linearGradient3931"
       x1="197.57852"
       y1="239.61255"
       x2="306.68417"
       y2="239.61255"
       gradientUnits="userSpaceOnUse"
       gradientTransform="matrix(0.28407622,0,0,0.28407622,-29.341986,-62.440985)" />
    <linearGradient
       xlink:href="#linearGradient3948"
       id="linearGradient3939"
       x1="220.19569"
       y1="304.74127"
       x2="433.66052"
       y2="304.74127"
       gradientUnits="userSpaceOnUse"
       gradientTransform="matrix(0.28407622,0,0,0.28407622,-29.341986,-62.440985)" />
    <linearGradient
       xlink:href="#linearGradient4038"
       id="linearGradient4103"
       x1="441.51831"
       y1="236.53979"
       x2="447.0611"
       y2="236.53979"
       gradientUnits="userSpaceOnUse"
       gradientTransform="matrix(0.28407622,0,0,0.28407622,-29.341986,-62.440985)" />
    <linearGradient
       xlink:href="#linearGradient4038"
       id="linearGradient4109"
       x1="441.01831"
       y1="236.53979"
       x2="447.5611"
       y2="236.53979"
       gradientUnits="userSpaceOnUse"
       gradientTransform="matrix(0.28407622,0,0,0.28407622,-29.341986,-62.440985)" />
    <linearGradient
       xlink:href="#linearGradient3889"
       id="linearGradient4117"
       x1="199.26604"
       y1="282.25763"
       x2="391.87213"
       y2="282.25763"
       gradientUnits="userSpaceOnUse"
       gradientTransform="matrix(0.28407622,0,0,0.28407622,-29.341986,-62.440985)" />
    <linearGradient
       xlink:href="#linearGradient3948"
       id="linearGradient4131"
       x1="253.26335"
       y1="369.5874"
       x2="335.07355"
       y2="369.5874"
       gradientUnits="userSpaceOnUse"
       gradientTransform="matrix(0.28407622,0,0,0.28407622,-29.341986,-62.440985)" />
    <linearGradient
       xlink:href="#linearGradient3833"
       id="linearGradient4145"
       x1="223.09764"
       y1="349.862"
       x2="389.58282"
       y2="349.862"
       gradientUnits="userSpaceOnUse"
       gradientTransform="matrix(0.28407622,0,0,0.28407622,-29.341986,-62.440985)" />
    <linearGradient
       xlink:href="#linearGradient4184"
       id="linearGradient4190"
       x1="204.76622"
       y1="224.42714"
       x2="699.67865"
       y2="631.24487"
       gradientUnits="userSpaceOnUse"
       gradientTransform="matrix(0.28407622,0,0,0.28407622,-29.341986,-62.440991)" />
    <linearGradient
       xlink:href="#linearGradient3922"
       id="linearGradient3928"
       x1="197.16782"
       y1="239.71579"
       x2="309.24945"
       y2="239.71579"
       gradientUnits="userSpaceOnUse"
       gradientTransform="matrix(0.28407622,0,0,0.28407622,-29.341986,-62.440985)" />
    <linearGradient
       xlink:href="#linearGradient3936"
       id="linearGradient3942"
       x1="219.87427"
       y1="304.6185"
       x2="433.98196"
       y2="304.6185"
       gradientUnits="userSpaceOnUse"
       gradientTransform="matrix(0.28407622,0,0,0.28407622,-29.341986,-62.440985)" />
    <linearGradient
       xlink:href="#linearGradient4038"
       id="linearGradient3952"
       x1="450.15594"
       y1="363.84668"
       x2="505.72363"
       y2="363.84668"
       gradientUnits="userSpaceOnUse"
       gradientTransform="matrix(0.28407622,0,0,0.28407622,-29.341986,-62.440985)" />
    <linearGradient
       xlink:href="#linearGradient3960"
       id="linearGradient3966"
       x1="514.48083"
       y1="449.04932"
       x2="595.70917"
       y2="308.69406"
       gradientUnits="userSpaceOnUse"
       gradientTransform="matrix(0.28407622,0,0,0.28407622,-29.341986,-62.440985)" />
    <linearGradient
       xlink:href="#linearGradient3984"
       id="linearGradient3990"
       x1="486.89426"
       y1="513.07019"
       x2="569.86212"
       y2="369.50418"
       gradientUnits="userSpaceOnUse"
       gradientTransform="matrix(0.28407622,0,0,0.28407622,-29.341986,-62.440991)" />
    <linearGradient
       xlink:href="#linearGradient4100"
       id="linearGradient4006"
       x1="247.11118"
       y1="421.89642"
       x2="347.52084"
       y2="421.89642"
       gradientUnits="userSpaceOnUse"
       gradientTransform="matrix(0.28407622,0,0,0.28407622,-29.341986,-62.440991)" />
    <radialGradient
       gradientTransform="matrix(0.28407622,0,0,0.28407622,-29.341986,-62.440991)"
       xlink:href="#linearGradient4092"
       id="radialGradient4018"
       cx="406.42856"
       cy="274.50504"
       fx="406.42856"
       fy="274.50504"
       r="7.6428571"
       gradientUnits="userSpaceOnUse" />
    <radialGradient
       gradientTransform="matrix(0.28407622,0,0,0.28407622,-29.341986,-62.440991)"
       xlink:href="#linearGradient4020"
       id="radialGradient4026"
       cx="406.42856"
       cy="274.50504"
       fx="406.42856"
       fy="274.50504"
       r="7.6428571"
       gradientUnits="userSpaceOnUse" />
    <linearGradient
       xlink:href="#linearGradient3992"
       id="linearGradient4042"
       x1="495.19037"
       y1="410.29266"
       x2="589.88391"
       y2="410.29266"
       gradientUnits="userSpaceOnUse"
       gradientTransform="matrix(0.28407622,0,0,0.28407622,-29.341986,-62.440985)" />
    <linearGradient
       y2="282.25763"
       x2="391.87213"
       y1="282.25763"
       x1="199.26604"
       gradientTransform="matrix(0.28407622,0,0,0.28407622,-29.341986,-62.440985)"
       gradientUnits="userSpaceOnUse"
       id="linearGradient5996"
       xlink:href="#linearGradient3889" />
    <linearGradient
       y2="349.862"
       x2="389.58282"
       y1="349.862"
       x1="223.09764"
       gradientTransform="matrix(0.28407622,0,0,0.28407622,-29.341986,-62.440985)"
       gradientUnits="userSpaceOnUse"
       id="linearGradient5998"
       xlink:href="#linearGradient3833" />
    <linearGradient
       y2="363.84668"
       x2="505.72363"
       y1="363.84668"
       x1="450.15594"
       gradientTransform="matrix(0.28407622,0,0,0.28407622,-29.341986,-62.440985)"
       gradientUnits="userSpaceOnUse"
       id="linearGradient6000"
       xlink:href="#linearGradient4038" />
  </defs>
  <metadata
     id="metadata7">
    <rdf:RDF>
      <cc:Work
         rdf:about="">
        <dc:format>image/svg+xml</dc:format>
        <dc:type
           rdf:resource="http://purl.org/dc/dcmitype/StillImage" />
        <dc:title />
      </cc:Work>
    </rdf:RDF>
  </metadata>
  <g
     id="g4394">
    <path
       inkscape:connector-curvature="0"
       style="display:inline;fill:none;stroke:#000000;stroke-width:0.28407621px;stroke-linecap:butt;stroke-linejoin:miter;stroke-opacity:1"
       d="m 26.344951,1.5846985 c 7.708193,7.2159517 22.574185,19.8002755 33.861338,29.7003955 -9.128178,3.66852 -18.25352,6.621887 -27.134442,11.526805 16.595875,-1.75849 33.191751,-6.11784 49.787626,-9.182735 C 64.063584,22.963801 48.776106,9.4916622 26.471747,1.6330633 28.980452,-0.56606274 33.864368,0.06806298 37.098124,0.99724177 88.234037,15.690432 124.99111,-25.16813 111.84245,66.055702 c -0.30025,2.651736 0.29541,4.67631 0.93265,6.671796"
       id="path6184" />
    <path
       inkscape:connector-curvature="0"
       style="display:inline;fill:none;stroke:#000000;stroke-width:0.28407621px;stroke-linecap:butt;stroke-linejoin:miter;stroke-opacity:1"
       d="M 60.333085,31.189982 82.71602,33.629164"
       id="path6186" />
    <path
       inkscape:connector-curvature="0"
       style="display:inline;fill:none;stroke:#000000;stroke-width:0.28407621px;stroke-linecap:butt;stroke-linejoin:miter;stroke-opacity:1"
       d="M 74.751639,4.4807087 C 38.717325,11.122511 100.74455,28.891718 93.520973,34.105751 c -4.128449,0.740861 -61.667962,12.564288 -60.385275,8.617614 -1.707434,3.878116 31.406767,-7.394493 43.84794,16.746389"
       id="path6188" />
    <ellipse
       style="display:inline;fill:#ffffff;fill-opacity:1;stroke:#000000;stroke-width:0.30357161;stroke-opacity:1"
       id="path6190"
       cx="86.672699"
       cy="15.806908"
       rx="5.5293403"
       ry="5.3125038" />
    <path
       inkscape:connector-curvature="0"
       style="display:inline;fill:none;stroke:#000000;stroke-width:0.28407621px;stroke-linecap:butt;stroke-linejoin:miter;stroke-opacity:1"
       d="m 76.882189,59.063897 c 6.216452,12.486165 15.870644,11.651036 26.378551,7.50774 -4.779085,18.942842 13.07491,39.833133 12.27612,83.092353 l -48.292931,6.08736 c 0.725472,-31.35124 -23.725972,-53.81662 9.63826,-96.687453 z"
       id="path6192" />
    <circle
       style="display:inline;fill:url(#radialGradient4026);fill-opacity:1;stroke:url(#radialGradient4018);stroke-width:0.28407621;stroke-miterlimit:4;stroke-dasharray:none;stroke-dashoffset:0;stroke-opacity:1"
       id="path6196"
       cx="86.114723"
       cy="15.539375"
       r="2.0291159" />
    <path
       inkscape:connector-curvature="0"
       style="display:inline;fill:none;stroke:#000000;stroke-width:0.28407621px;stroke-linecap:butt;stroke-linejoin:miter;stroke-opacity:1"
       d="m 115.89196,82.652422 c 2.47213,23.346968 13.9751,43.485778 12.02252,68.026118"
       id="path6200" />
    <path
       inkscape:connector-curvature="0"
       style="display:inline;fill:none;stroke:#000000;stroke-width:0.28407621px;stroke-linecap:butt;stroke-linejoin:miter;stroke-opacity:1"
       d="m 127.9481,150.52972 c -0.1793,0 -12.411,-0.89681 -12.411,-0.89681"
       id="path6208" />
    <path
       inkscape:connector-curvature="0"
       style="display:inline;fill:none;stroke:#000000;stroke-width:0.28407621px;stroke-linecap:butt;stroke-linejoin:miter;stroke-opacity:1"
       d="m 105.1103,83.598837 c 22.44298,-22.431487 2.60834,-52.49926 32.25173,-58.987048 4.09864,-0.934646 9.00989,2.304299 4.28609,6.953935 -16.54971,14.405578 -2.23616,39.723805 -26.98659,51.77077 z"
       id="path6210" />
    <path
       inkscape:connector-curvature="0"
       style="display:inline;fill:none;stroke:#000000;stroke-width:0.28407621px;stroke-linecap:butt;stroke-linejoin:miter;stroke-opacity:1"
       d="m 107.29414,83.425631 c 20.64436,-14.338167 2.73822,-55.216294 31.70629,-58.009492 4.90558,-0.369767 4.6722,4.031769 1.98933,6.661597"
       id="path6214" />
    <path
       inkscape:connector-curvature="0"
       style="display:inline;fill:none;stroke:#000000;stroke-width:0.28407621px;stroke-linecap:butt;stroke-linejoin:miter;stroke-opacity:1"
       d="M 70.978231,67.596145 C 68.340436,60.847312 58.84412,59.906691 46.005479,46.42049 43.210411,43.995491 40.858556,44.773468 40.589695,47.108002 39.139536,59.702043 62.286869,63.933601 64.637517,78.538456"
       id="path6218" />
    <path
       inkscape:connector-curvature="0"
       style="display:inline;fill:none;stroke:#000000;stroke-width:0.28407621px;stroke-linecap:butt;stroke-linejoin:miter;stroke-opacity:1"
       d="M 40.966825,45.874681 C 39.638272,57.820378 62.480352,65.069214 66.026421,75.90561"
       id="path6220" />
    <path
       inkscape:connector-curvature="0"
       style="display:inline;fill:none;stroke:#000000;stroke-width:0.28407621px;stroke-linecap:butt;stroke-linejoin:miter;stroke-opacity:1"
       d="M 61.562362,45.773172 C 59.455168,43.47352 61.172982,41.173868 68.25848,38.874217"
       id="path6222" />
    <path
       inkscape:connector-curvature="0"
       style="display:inline;fill:none;stroke:#000000;stroke-width:0.28407621px;stroke-linecap:butt;stroke-linejoin:miter;stroke-opacity:1"
       d="M 93.180718,4.0989321 C 130.72953,10.072474 100.83635,67.051061 110.27346,77.320887"
       id="path6224" />
    <path
       inkscape:connector-curvature="0"
       style="display:inline;fill:none;stroke:#000000;stroke-width:0.28407621px;stroke-linecap:butt;stroke-linejoin:miter;stroke-opacity:1"
       d="m 109.0437,83.514769 c 14.53943,14.894537 11.13465,63.483421 11.36307,66.352121"
       id="path6226" />
    <path
       inkscape:connector-curvature="0"
       style="display:inline;fill:none;stroke:#000000;stroke-width:0.28407621px;stroke-linecap:butt;stroke-linejoin:miter;stroke-opacity:1"
       d="M 94.194423,69.068755 C 106.21339,68.507859 112.1273,149.64033 105.59419,150.8815"
       id="path6228" />
    <path
       inkscape:connector-curvature="0"
       style="display:inline;fill:none;stroke:#000000;stroke-width:0.28407621px;stroke-linecap:butt;stroke-linejoin:miter;stroke-opacity:1"
       d="m 79.824391,63.832333 c -4.435392,-2.352549 -7.063289,1.922582 -9.942606,5.275711"
       id="path6230" />
    <path
       inkscape:connector-curvature="0"
       style="display:inline;fill:none;stroke:#000000;stroke-width:0.28407621px;stroke-linecap:butt;stroke-linejoin:miter;stroke-opacity:1"
       d="m 60.142016,114.15448 c 2.685472,13.55971 5.66147,29.38002 13.595073,40.78522"
       id="path6232" />
    <path
       inkscape:connector-curvature="0"
       style="display:inline;fill:none;stroke:#000000;stroke-width:0.28407621px;stroke-linecap:butt;stroke-linejoin:miter;stroke-opacity:1"
       d="m 59.303387,67.254261 c 0.799824,1.277738 17.035648,7.568663 6.481934,-5.443576"
       id="path6234" />
    <path
       inkscape:connector-curvature="0"
       style="display:inline;fill:none;stroke:none"
       d="m 111.85615,79.113596 c -2.4903,2.825605 1.81365,4.173591 3.14993,3.465561 24.44112,-12.950772 10.66765,-46.702846 23.99193,-57.145818"
       id="path6236" />
    <path
       inkscape:connector-curvature="0"
       style="display:inline;fill:none;stroke:#000000;stroke-width:0.28407621px;stroke-linecap:butt;stroke-linejoin:miter;stroke-opacity:1"
       d="M 113.98965,83.235769 Z"
       id="path6238" />
    <path
       inkscape:connector-curvature="0"
       style="display:inline;fill:none;stroke:#020000;stroke-width:0.28407621px;stroke-linecap:butt;stroke-linejoin:miter;stroke-opacity:1"
       d="M 47.358596,11.278215 C 45.193646,2.0856913 65.748567,5.5708782 74.830577,4.4151078"
       id="path6240" />
    <path
       inkscape:connector-curvature="0"
       style="display:inline;fill:url(#linearGradient4190);fill-opacity:1;stroke:none"
       d="M 87.414781,3.9555396 C 79.994579,4.2644732 71.942449,3.5960323 65.31326,7.5492244 63.445114,8.5772934 62.839859,11.141038 64.18,12.797476 c 2.799534,3.846734 7.418452,5.824054 11.362652,8.318034 5.685791,3.450232 11.959939,6.097864 17.183808,10.163187 0.854441,0.499822 1.862353,2.235318 0.418591,2.682092 -8.629201,2.10472 -17.550015,3.152282 -26.149282,5.362616 -2.398506,0.877917 -5.555918,1.834652 -6.348982,4.546496 0.209536,2.348355 3.170568,2.737313 4.798218,3.832431 5.425198,2.784145 9.267286,7.6196 12.195185,12.847151 2.372917,4.371873 6.442284,8.124943 11.577076,8.617825 4.733221,0.708211 9.475676,-1.079246 13.845824,-2.268813 -1.2918,6.924966 -0.31225,14.031889 1.59507,20.750819 3.6174,13.633516 8.08942,27.128586 9.6502,41.232656 0.93785,6.65176 1.07388,13.40563 1.28239,20.11412 0.35124,1.36072 2.26483,0.67098 3.27304,0.91135 2.52881,0.84346 1.75789,-1.87013 1.80732,-3.41305 -0.31274,-17.52998 0.4178,-35.57849 -5.46467,-52.371471 -1.43833,-3.883065 -3.28065,-7.811694 -6.20686,-10.760052 -1.19427,0.01448 -2.48764,0.147255 -3.63182,0.05371 1.80302,-1.8498 3.61408,-3.882703 4.86037,-6.106917 -1.50254,-2.159035 -1.62215,-4.689708 -1.49463,-7.236736 -0.25444,-9.301656 2.15475,-18.371475 3.20152,-27.570263 1.17424,-9.677366 1.99308,-20.359325 -3.15065,-29.095467 -3.89562,-6.7774702 -12.14654,-9.8957146 -19.710557,-9.4607693 -0.553051,0 -1.106041,0.00604 -1.659032,0.00905 z m -1.102964,6.7076444 c 3.086319,-0.28763 6.285192,2.508826 5.658453,5.757186 -0.272965,3.829655 -5.548676,6.080423 -8.501198,3.551138 -3.314987,-2.102608 -2.641476,-7.716039 1.103024,-8.940609 0.556129,-0.209356 1.172488,-0.344903 1.739721,-0.367715 z"
       id="path6292" />
    <path
       inkscape:connector-curvature="0"
       style="display:inline;fill:url(#linearGradient4006);fill-opacity:1;stroke:none"
       d="m 42.469007,44.922171 c -1.051063,-0.01328 -1.788303,0.982866 -1.576111,2.003754 -0.05069,4.593087 3.48614,8.118878 6.632267,11.020826 3.723921,3.288976 7.717849,6.311414 11.686189,9.303225 2.598447,1.751489 5.829426,3.074671 9.002106,2.547933 1.541048,-0.308149 1.304172,-2.210997 0.71648,-3.252947 C 67.751416,63.76812 65.722074,61.373145 63.058449,59.898785 57.346586,56.23624 51.86671,52.205981 47.093657,47.39183 45.788761,46.236784 44.409453,44.724825 42.469007,44.922171 Z"
       id="path6294" />
    <path
       inkscape:connector-curvature="0"
       style="display:inline;fill:url(#linearGradient3966);fill-opacity:1;stroke:#000000;stroke-width:0.28407621;stroke-opacity:1"
       d="m 138.56035,24.447153 c -4.52912,0.54412 -9.02625,2.325301 -12.50442,5.307395 -4.32404,3.709497 -6.16968,9.429447 -7.02998,14.913548 -1.71117,9.736932 -2.07351,20.014031 -6.7896,28.901712 -1.75173,3.511126 -4.12591,6.667995 -6.75695,9.569521 -0.10645,0.833741 1.30581,0.463974 1.83254,0.240979 3.16315,-1.841713 5.39992,-4.972933 7.12093,-8.135474 3.74341,-7.333056 4.26997,-15.737482 5.54203,-23.753402 0.99379,-6.174207 1.66833,-12.709551 5.06648,-18.103489 3.25608,-5.249337 9.64755,-8.092022 15.7383,-7.736015 1.48504,0.349972 2.26905,1.929282 1.87261,3.345826 -0.38311,1.407009 0.89723,0.786185 0.8857,-0.219736 0.68667,-2.234171 -1.57533,-4.090248 -3.627,-4.26116 -0.44617,-0.06723 -0.89741,-0.09451 -1.35064,-0.0697 z"
       id="path6296" />
    <path
       inkscape:connector-curvature="0"
       style="display:inline;fill:#252525;fill-opacity:1;stroke:none"
       d="m 115.59443,82.780546 c -1.42433,0.911653 -3.20376,0.347377 -4.79725,0.588295 -0.52927,0.04044 -1.94262,-0.0072 -1.21938,0.805497 2.6317,3.009795 4.28717,6.704084 5.69382,10.407425 3.39115,9.880807 4.34776,20.401697 5.00836,30.785517 0.23844,8.12468 0.11949,16.25538 0.15691,24.38265 0.37972,0.60724 1.39379,0.23959 2.02379,0.43814 1.70532,0.0852 3.4238,0.3854 5.12332,0.34201 0.78257,-0.55287 0.4067,-1.74709 0.54817,-2.56019 0.16373,-7.2319 -0.48076,-14.47981 -2.06206,-21.54086 -3.06332,-14.54946 -8.40838,-28.604459 -10.06318,-43.433275 -0.0543,-0.190405 -0.2329,-0.279724 -0.4125,-0.215209 z"
       id="path6308" />
    <path
       inkscape:connector-curvature="0"
       style="display:inline;fill:#dcdcdc;fill-opacity:1;stroke:none"
       d="m 65.996245,140.45832 c -0.310985,1.23175 0.41678,2.57395 0.441222,3.84692 0.591313,3.74238 0.581536,7.60179 1.008395,11.33935 1.896511,0.0223 3.901291,-0.44991 5.836185,-0.64629 0.576406,-0.77405 -0.885039,-1.75927 -1.139657,-2.60237 -2.366037,-3.7031 -3.780047,-7.8916 -5.632502,-11.84883 -0.113338,-0.15601 -0.349671,-0.24641 -0.513643,-0.0888 z"
       id="path6318" />
    <path
       inkscape:connector-curvature="0"
       style="display:inline;fill:#ffffff;fill-opacity:1;stroke:#ffffff;stroke-width:0.14348017;stroke-miterlimit:4;stroke-dasharray:none;stroke-dashoffset:0;stroke-opacity:1"
       d="m 73.138352,153.60324 c -3.483605,-5.40685 -6.254171,-12.04461 -8.503793,-20.37351 -1.473877,-5.4567 -3.72905,-15.72302 -4.324045,-19.68473 -0.923421,-6.14777 -1.018051,-12.55191 -0.266266,-18.013503 0.863192,-6.270707 3.063929,-13.189518 6.16944,-19.396193 0.920705,-1.840144 2.950108,-5.470341 3.607264,-6.452725 0.831869,-1.24358 3.290001,-4.061521 4.187532,-4.800391 1.329761,-1.094695 2.064406,-1.407673 3.317763,-1.413527 1.461083,-0.0066 2.095909,0.295355 3.511669,1.670982 1.52614,1.482809 2.465856,2.165795 4.017465,2.919571 2.454752,1.192584 5.176253,1.651368 8.171805,1.377558 1.544488,-0.141159 1.7568,-0.131202 2.296272,0.107424 5.400512,2.38891 10.374112,23.221202 12.284502,51.455044 0.37351,5.52007 0.53036,16.42841 0.28787,20.01551 -0.31062,4.59357 -0.71358,6.9479 -1.46422,8.55503 -0.29306,0.62747 -0.52366,0.92318 -0.80628,1.0338 -0.33512,0.13133 -30.980391,4.04994 -31.602724,4.04113 -0.118347,0 -0.516297,-0.47031 -0.884254,-1.04147 l 0,0 z"
       id="path3813-5" />
    <path
       inkscape:connector-curvature="0"
       style="display:inline;fill:url(#linearGradient3917);fill-opacity:1;stroke:url(#linearGradient4042);stroke-width:0.14348017;stroke-miterlimit:4;stroke-dasharray:none;stroke-dashoffset:0;stroke-opacity:1"
       d="m 112.12326,82.374207 c -1.05535,-0.184492 -1.24582,-0.896807 -1.24262,-1.420528 0.006,-0.442429 0.74865,-1.139234 1.93272,-2.792292 0.98528,-1.375627 2.28946,-3.827724 3.0197,-5.677644 1.62861,-4.125734 2.5422,-8.410974 3.81969,-17.915829 1.10822,-8.245252 1.86978,-12.260001 2.94969,-15.550365 1.99271,-6.07125 5.14264,-9.770608 10.0994,-11.861146 1.25981,-0.531264 3.44709,-1.130966 4.73901,-1.299223 l 1.31033,-0.102777 -0.93248,1.163918 c 0,0 -2.63025,3.715532 -3.4667,6.340895 -1.11787,3.508651 -1.73779,6.338783 -2.74878,16.544336 -0.78226,7.896185 -1.49005,12.124153 -2.86007,16.282989 -0.79143,2.402368 -2.58517,5.926046 -3.73593,7.642472 -2.29325,3.420479 -5.86183,6.695755 -9.38913,8.645978 -1.09446,0.605134 -2.04196,0.678339 -3.09175,0.252627 z"
       id="path3815-0" />
    <path
       inkscape:connector-curvature="0"
       style="display:inline;fill:#ffffff;fill-opacity:1;stroke:#ffffff;stroke-width:0.07174008;stroke-miterlimit:4;stroke-dasharray:none;stroke-dashoffset:0;stroke-opacity:1"
       d="m 64.65876,77.757643 c -0.613341,-3.076361 -2.33719,-6.049282 -5.246924,-9.048757 -1.807615,-1.863379 -3.338644,-3.149566 -7.823764,-6.572791 -3.045643,-2.324517 -4.477758,-3.478416 -5.749039,-4.632135 -2.891508,-2.624035 -4.514451,-5.124351 -4.966294,-7.651041 -0.13953,-0.78021 -0.217141,-1.89277 -0.135547,-1.943162 0.03561,-0.02173 0.105492,0.228305 0.155704,0.555948 0.479604,3.125969 2.831158,6.427497 7.290629,10.235909 1.573576,1.343762 2.458072,2.050284 5.559901,4.441216 5.304558,4.088678 7.654964,6.160266 9.494263,8.367763 1.046235,1.25565 2.063078,2.940995 2.503576,4.149451 l 0.104648,0.286966 -0.548948,1.129156 -0.548947,1.129096 -0.08926,-0.447619 0,0 z"
       id="path3817-2" />
    <path
       inkscape:connector-curvature="0"
       style="display:inline;fill:#ffffff;fill-opacity:1;stroke:none"
       d="m 34.516153,42.24726 c 1.00761,-0.579967 4.780777,-2.387099 7.173972,-3.435928 3.204726,-1.404475 5.084399,-2.162053 11.837126,-4.770639 2.229343,-0.861139 4.682828,-1.813951 5.452235,-2.117273 l 1.398922,-0.551481 2.833753,0.331625 c 3.30008,0.386242 9.003917,1.014671 14.096947,1.553238 1.972854,0.208571 3.61179,0.399942 3.642085,0.425289 0.06041,0.05069 -0.45136,0.161257 -6.834561,1.479792 -17.445609,3.603582 -23.742931,4.837144 -29.951477,5.866903 -3.483848,0.577795 -9.263424,1.407552 -9.787265,1.405138 -0.163127,-6.03e-4 -0.147074,-0.02233 0.138263,-0.186664 z"
       id="path3839-3" />
    <path
       inkscape:connector-curvature="0"
       style="display:inline;fill:url(#linearGradient3847);fill-opacity:1;stroke:none"
       d="m 34.516153,42.24726 c 1.00761,-0.579967 4.780777,-2.387099 7.173972,-3.435928 3.204726,-1.404475 5.084399,-2.162053 11.837126,-4.770639 2.229343,-0.861139 4.682828,-1.813831 5.452235,-2.116971 l 1.398922,-0.55124 3.156567,0.367715 c 3.505332,0.40827 8.433666,0.950699 13.809981,1.519985 1.953119,0.20682 3.575942,0.396683 3.606237,0.42197 0.06041,0.05009 -0.452145,0.161316 -6.834561,1.479731 -17.445609,3.603582 -23.742931,4.837144 -29.951477,5.866903 -3.483848,0.577795 -9.263424,1.407552 -9.787265,1.405138 -0.163127,-6.03e-4 -0.147074,-0.02233 0.138263,-0.186664 z"
       id="path3841-9" />
    <path
       inkscape:connector-curvature="0"
       style="display:inline;fill:url(#linearGradient3928);fill-opacity:1;stroke:url(#linearGradient3931);stroke-width:0.28407621;stroke-miterlimit:4;stroke-dasharray:none;stroke-dashoffset:0;stroke-opacity:1"
       d="M 46.501137,10.651898 C 45.273369,9.9301078 42.010827,8.1827225 40.033325,7.1877859 36.315741,5.3173462 33.153199,3.9149841 29.631513,2.5752416 29.183592,2.4048664 28.795539,2.2661148 28.769105,2.2668994 28.742551,2.2675029 28.291191,2.1140318 27.765901,1.9254429 L 26.810735,1.5825682 26.954248,1.4664299 c 0.244419,-0.1977924 1.237666,-0.66300945 1.690717,-0.79189979 1.019378,-0.29000777 2.347509,-0.41137845 3.671838,-0.33553008 1.666938,0.0954623 2.932486,0.32841477 5.357727,0.98620387 6.369018,1.7274335 12.08058,2.6927983 18.759316,3.1704717 1.27454,0.091189 2.214618,0.09125 1.855171,0.1091739 C 57.7245,4.6332141 55.287672,4.7921771 54.313254,4.93219 51.345222,5.3588069 49.271522,6.1418533 48.189077,7.2447567 47.760469,7.6813314 47.637414,7.853149 47.413152,8.3274428 47.13204,8.9221959 47.035661,9.409646 47.034695,10.242421 c -6.03e-4,0.383648 0.0513,0.755104 0.03742,0.753776 -0.01388,0 -0.305614,-0.188534 -0.570673,-0.344299 z"
       id="path3919" />
    <path
       inkscape:connector-curvature="0"
       style="display:inline;fill:url(#linearGradient3942);fill-opacity:1;stroke:url(#linearGradient3939);stroke-width:0.28407621;stroke-miterlimit:4;stroke-dasharray:none;stroke-dashoffset:0;stroke-opacity:1"
       d="m 34.170888,43.364044 c -0.358361,-0.05009 -0.722032,-0.16198 -0.808031,-0.24804 -0.133797,-0.133796 -0.134944,-0.156488 -0.0078,-0.157031 0.236936,0 3.460854,-0.394149 5.069192,-0.618049 6.687366,-0.931086 13.591512,-2.198202 25.160984,-4.617951 9.052378,-1.893253 12.848961,-2.667669 16.334377,-3.331765 1.646177,-0.313641 3.082456,-0.606581 3.191872,-0.650999 0.168076,-0.06826 0.0936,-0.139591 -0.481053,-0.460957 -0.373931,-0.209114 -0.704772,-0.420461 -0.735189,-0.469707 -0.03017,-0.04949 -0.909661,-0.601512 -1.953904,-1.227406 -4.189645,-2.510999 -7.966252,-4.898159 -15.544451,-9.825406 -6.123996,-3.981798 -10.44273,-6.715369 -13.687167,-8.663299 -1.621193,-0.973392 -2.994949,-1.785587 -3.052704,-1.804839 -0.05794,-0.01931 -0.1516,-0.3239 -0.20845,-0.677011 -0.120098,-0.745689 -0.0066,-1.5446679 0.31358,-2.2058668 0.660053,-1.3635568 2.675695,-2.4412337 5.494662,-2.9378571 2.647331,-0.4663275 4.563938,-0.5622846 12.053181,-0.6033229 l 7.425331,-0.1066995 -2.290116,0.5224534 c -3.189881,0.7276446 -4.856457,1.6960874 -6.057309,2.8799811 -0.882685,0.8702526 -1.107007,1.3563147 -1.107007,2.3985058 0,1.222518 0.624385,2.318964 2.217515,3.893988 2.540208,2.511301 6.154472,4.794598 15.730148,9.937296 2.310214,1.240744 4.7984,2.59905 5.529364,3.018546 3.023555,1.735194 6.184648,3.942811 6.690022,4.672086 0.504831,0.728429 0.462043,1.479972 -0.09873,1.735496 -0.134521,0.06132 -0.734465,0.223296 -1.33314,0.35993 -2.365072,0.539894 -21.87738,4.296948 -23.713118,4.565929 -0.167412,0.02474 -1.422942,0.254136 -2.789999,0.510202 -14.940343,2.798629 -28.256597,4.545592 -31.342011,4.111793 l 0,0 z"
       id="path3933" />
    <path
       inkscape:connector-curvature="0"
       style="display:inline;fill:url(#linearGradient4103);fill-opacity:1;stroke:url(#linearGradient4109);stroke-width:0.28407621;stroke-opacity:1"
       d="M 97.465354,4.9174041 C 97.158774,4.8254301 96.752073,4.7140233 96.438553,4.636111 96.242776,4.5872271 95.909159,4.476967 95.920505,4.4766049 c 0.01509,0 0.556793,0.1187695 0.791556,0.1549194 0.230599,0.035607 0.504589,0.080749 0.729032,0.1204594 0.08365,0.014484 0.165179,0.028968 0.181172,0.031986 0.01569,0 0.03138,0.00664 0.0344,0.00785 0.006,0 -0.006,0.019916 -0.02655,0.053712 0.380328,0.1418838 0.884254,-0.39614 1.140924,0.4257117 L 97.617317,4.9318279 c 0.01026,0.019312 0.0175,0.035003 0.01509,0.035003 0,-2.414e-4 -0.07731,-0.02233 -0.167291,-0.049487 z"
       id="path4097" />
    <path
       inkscape:connector-curvature="0"
       style="display:inline;fill:url(#linearGradient5996);fill-opacity:1;stroke:url(#linearGradient4117);stroke-width:0.28407621;stroke-miterlimit:4;stroke-dasharray:none;stroke-dashoffset:0;stroke-opacity:1"
       d="M 71.077809,32.1851 C 65.39594,31.55993 60.61293,31.096318 60.465192,31.094568 60.214979,31.088533 59.927531,30.796015 56.066674,27.4348 53.787723,25.450841 49.744066,21.940741 47.080742,19.634511 35.822799,9.8862934 26.967043,2.1557581 27.072897,2.0499216 c 0.03319,-0.033132 2.339544,0.8583576 4.117406,1.5747771 7.115553,2.8670661 14.665387,6.8359493 23.387286,12.2944013 2.398204,1.500854 5.477583,3.495374 10.832714,7.016397 7.101793,4.66943 11.483835,7.437401 15.101298,9.538802 0.769407,0.447015 1.571585,0.875684 1.588,0.889625 0.08045,0.06832 -1.433322,-0.123839 -11.021792,-1.178824 z"
       id="path4111" />
    <path
       inkscape:connector-curvature="0"
       style="display:inline;fill:#bf7f20;fill-opacity:1;stroke:url(#linearGradient4131);stroke-width:0.03587004;stroke-miterlimit:4;stroke-dasharray:none;stroke-dashoffset:0;stroke-opacity:1"
       d="m 60.77491,45.434485 c -2.416369,-0.82686 -5.289772,-1.461867 -8.232155,-1.819323 -2.573945,-0.312615 -4.478663,-0.415633 -7.837585,-0.423659 -1.203447,0 -2.979861,0.06675 -2.920657,0.05975 4.946801,-0.576648 13.517763,-1.850645 21.877138,-3.332972 1.173392,-0.208088 2.479978,-0.462585 2.496635,-0.457033 0.0169,0.006 -0.493425,0.177551 -0.726679,0.273749 -2.262657,0.933017 -3.846975,1.987037 -4.470516,2.974007 -0.298493,0.472604 -0.401149,0.853053 -0.37556,1.392163 0.02052,0.438808 0.140616,0.792522 0.404408,1.194153 0.08914,0.135789 0.246531,0.308512 0.241462,0.312615 -0.006,0.006 -0.259205,-0.106035 -0.456491,-0.173567 l 0,0 z"
       id="path4125" />
    <path
       inkscape:connector-curvature="0"
       style="display:inline;fill:url(#linearGradient5998);fill-opacity:1;stroke:url(#linearGradient4145);stroke-width:0.14203811;stroke-miterlimit:4;stroke-dasharray:none;stroke-dashoffset:0;stroke-opacity:1"
       d="m 34.777772,42.103566 c 1.138027,-0.615272 4.804796,-2.361933 6.725206,-3.203519 3.051256,-1.337184 4.706546,-2.002487 12.250043,-4.923687 2.525242,-0.977858 5.062855,-1.961871 5.639081,-2.186616 l 1.047683,-0.408693 10.358964,1.122638 c 5.697439,0.617445 10.883589,1.154202 10.954803,1.181842 0.07785,0.03017 -1.060719,0.179181 -2.152216,0.387088 -2.332482,0.444239 -8.121835,1.628796 -16.127496,3.299778 -12.351311,2.577988 -18.781223,3.752889 -25.54608,4.667862 -1.231993,0.166627 -3.745405,0.474112 -3.855666,0.471638 -0.02595,-5.43e-4 0.291372,-0.18431 0.705678,-0.408331 z"
       id="path4139" />
    <path
       inkscape:connector-curvature="0"
       style="display:inline;fill:url(#linearGradient6000);fill-opacity:1;stroke:url(#linearGradient3952);stroke-width:0.28407621;stroke-miterlimit:4;stroke-dasharray:none;stroke-dashoffset:0;stroke-opacity:1"
       d="m 109.8119,76.264574 c -0.91202,-1.437908 -1.10604,-2.932365 -1.00345,-7.729437 0.0435,-2.046964 0.13917,-4.340883 0.21195,-5.097677 0.13633,-1.416152 0.77991,-5.805677 1.68963,-11.523696 1.67913,-10.554016 2.14974,-15.123446 2.14733,-20.847923 0,-5.798888 -0.53483,-9.588651 -1.88746,-13.436049 C 108.97526,11.956433 104.96516,7.7305774 99.530967,5.5755252 98.033312,4.981617 98.326132,4.921689 100.12089,5.4548244 c 6.75466,2.0067109 10.68009,6.5133166 12.67292,14.5495146 2.18149,8.796914 1.9798,22.369356 -0.62583,42.105684 -0.28142,2.131848 -0.5472,4.216109 -0.59059,4.631682 -0.10797,1.03344 0.12432,2.862057 0.58739,4.625374 l 0.3866,1.472067 -0.99741,1.785467 c -1.42155,2.544734 -1.26289,2.395367 -1.74207,1.639961 l 0,0 z"
       id="path3946" />
    <path
       inkscape:connector-curvature="0"
       style="display:inline;fill:url(#linearGradient3990);fill-opacity:1;stroke:none"
       d="m 107.73524,83.339209 c 0,-0.02293 0.30785,-0.275378 0.68407,-0.561379 0.37623,-0.286061 1.08021,-0.884978 1.56441,-1.330907 l 0.88033,-0.810868 0.0847,0.423539 c 0.11557,0.577614 0.91678,1.342917 1.67738,1.602061 0.34544,0.117744 0.9851,0.214003 1.42137,0.214003 0.72988,0 0.89723,-0.06035 2.09416,-0.754983 4.86201,-2.821804 8.30246,-6.533896 10.80574,-11.658972 2.64183,-5.408663 3.68783,-10.105462 4.83382,-21.704808 0.858,-8.498723 1.3851,-17.062565 7.13016,-23.082637 l 0.9274,0 c 1.69808,0.006 2.6664,0.79234 2.78867,2.266761 0.12089,1.457945 -0.58986,2.841779 -2.4539,4.777639 -3.87088,4.02012 -6.07011,8.628416 -7.47374,15.660564 -0.24641,1.234468 -0.71883,3.974195 -1.04985,6.088329 -0.33102,2.114074 -0.77894,4.796529 -0.99536,5.96099 -1.4332,7.710818 -3.60757,12.516581 -7.50173,16.580455 -2.11963,2.212023 -4.09327,3.708592 -7.04157,5.339562 l -1.42179,0.786546 -3.05367,0.06946 c -1.67949,0.03802 -3.2442,0.09282 -3.47709,0.121304 -0.23295,0.02836 -0.42348,0.03319 -0.42348,0.01026 z"
       id="path3982" />
    <path
       inkscape:connector-curvature="0"
       style="display:inline;fill:#dfdfdf;fill-opacity:1;stroke:#000000;stroke-width:0.0211451;stroke-miterlimit:4;stroke-dasharray:none;stroke-dashoffset:0;stroke-opacity:1"
       d="m 71.481855,66.897288 c 0,-0.0513 1.102179,-1.696812 1.909667,-2.844314 1.481844,-2.106018 3.39308,-4.655822 3.422833,-4.566563 0.0097,0.02897 0.04647,0.0525 0.08214,0.0525 0.03561,0 0.140013,0.150333 0.232047,0.33404 0.384432,0.767174 1.245994,2.156802 1.876596,3.026904 0.192035,0.264938 0.341402,0.489381 0.331927,0.498856 -0.0097,0.0097 -0.158903,-0.0338 -0.332169,-0.0962 -0.606883,-0.218348 -1.006463,-0.285035 -1.673999,-0.279543 -0.513461,0.006 -0.702297,0.02655 -1.082626,0.126555 -1.387455,0.365602 -2.812449,1.473575 -4.570637,3.553612 -0.10676,0.126313 -0.194871,0.213761 -0.195776,0.194328 l 0,0 z"
       id="path4008-2" />
    <path
       inkscape:connector-curvature="0"
       style="display:inline;fill:#dfdfdf;fill-opacity:1;stroke:#000000;stroke-width:0.08458041;stroke-miterlimit:4;stroke-dasharray:none;stroke-dashoffset:0;stroke-opacity:1"
       d="m 106.92214,149.5585 c 1.11196,-2.5343 1.48021,-6.54555 1.4676,-15.98549 -0.0127,-9.54188 -0.55516,-17.95147 -1.83006,-28.37525 -2.36894,-19.368976 -6.18375,-32.623793 -10.233439,-35.557426 l -0.73193,-0.530178 1.341469,-0.305011 c 0.737843,-0.167714 2.364407,-0.637723 3.61469,-1.044424 1.25022,-0.406641 2.30605,-0.706462 2.3463,-0.666208 0.0404,0.04043 0,0.336333 -0.0946,0.658 -0.35528,1.238994 -0.61274,4.964303 -0.4991,7.222253 0.24382,4.843179 1.17201,9.24568 4.17649,19.809111 3.7576,13.211243 4.85646,17.527323 6.14596,24.139553 1.76483,9.04972 2.80805,19.84321 2.66224,27.54513 l -0.0573,3.03707 -3.96182,0.50169 c -2.17902,0.27586 -4.14384,0.50538 -4.3663,0.51008 l -0.40446,0.008 0.42444,-0.96747 0,0 z"
       id="path4010" />
    <path
       inkscape:connector-curvature="0"
       style="display:inline;fill:#404040;fill-opacity:1;stroke:#000000;stroke-width:0.01495185;stroke-miterlimit:4;stroke-dasharray:none;stroke-dashoffset:0;stroke-opacity:1"
       d="m 65.950319,75.256179 c -0.165602,-0.444359 -0.707669,-1.506044 -1.035191,-2.027471 -0.844905,-1.34515 -1.818779,-2.511964 -3.382217,-4.052287 -0.474656,-0.467595 -0.855708,-0.850217 -0.846897,-0.850217 0.0091,0 0.100725,0.03802 0.204226,0.08395 0.529454,0.236211 1.386007,0.579182 1.849558,0.74062 3.081492,1.07315 5.406671,1.183169 6.275898,0.296924 0.212313,-0.216477 0.303985,-0.364939 0.384674,-0.62336 0.350515,-1.121974 -0.396382,-2.935262 -2.269899,-5.510654 -0.239471,-0.329212 -0.429273,-0.604711 -0.421729,-0.612255 0.02052,-0.02052 0.827525,0.633075 1.275626,1.032655 1.229459,1.096326 2.171589,2.33713 2.68511,3.536352 l 0.07097,0.165783 -0.378095,0.59258 c -1.312561,2.057104 -2.843047,4.713004 -3.883427,6.739087 -0.223116,0.434463 -0.40809,0.789806 -0.411047,0.789625 -0.006,-1.81e-4 -0.05613,-0.135788 -0.117562,-0.30133 z"
       id="path4036" />
  </g>
</svg>
