<?xml version="1.0" encoding="UTF-8" standalone="no"?>
<svg
   xmlns:osb="http://www.openswatchbook.org/uri/2009/osb"
   xmlns:dc="http://purl.org/dc/elements/1.1/"
   xmlns:cc="http://creativecommons.org/ns#"
   xmlns:rdf="http://www.w3.org/1999/02/22-rdf-syntax-ns#"
   xmlns:svg="http://www.w3.org/2000/svg"
   xmlns="http://www.w3.org/2000/svg"
   xmlns:xlink="http://www.w3.org/1999/xlink"
   xmlns:sodipodi="http://sodipodi.sourceforge.net/DTD/sodipodi-0.dtd"
   xmlns:inkscape="http://www.inkscape.org/namespaces/inkscape"
   version="1.1"
   id="svg2"
   viewBox="0 0 170 145"
   height="145"
   width="170"
   inkscape:version="0.91 r"
   sodipodi:docname="daisy.svg">
  <sodipodi:namedview
     pagecolor="#ffffff"
     bordercolor="#666666"
     borderopacity="1"
     objecttolerance="10"
     gridtolerance="10"
     guidetolerance="10"
     inkscape:pageopacity="0"
     inkscape:pageshadow="2"
     inkscape:window-width="1920"
     inkscape:window-height="1028"
     id="namedview183"
     showgrid="false"
     inkscape:zoom="0.28700216"
     inkscape:cx="-124.33941"
     inkscape:cy="-115.44904"
     inkscape:window-x="0"
     inkscape:window-y="0"
     inkscape:window-maximized="1"
     inkscape:current-layer="svg2" />
  <defs
     id="defs4">
    <linearGradient
       id="linearGradient4297">
      <stop
         style="stop-color:#3f3f3f;stop-opacity:1;"
         offset="0"
         id="stop4299" />
      <stop
         style="stop-color:#000000;stop-opacity:1;"
         offset="1"
         id="stop4301" />
    </linearGradient>
    <linearGradient
       id="linearGradient4100">
      <stop
         style="stop-color:#7f7f7f;stop-opacity:1;"
         offset="0"
         id="stop4102" />
      <stop
         style="stop-color:#000000;stop-opacity:1;"
         offset="1"
         id="stop4104" />
    </linearGradient>
    <linearGradient
       id="linearGradient4092">
      <stop
         style="stop-color:#000000;stop-opacity:0.49803922;"
         offset="0"
         id="stop4094" />
      <stop
         style="stop-color:#000000;stop-opacity:1;"
         offset="1"
         id="stop4096" />
    </linearGradient>
    <radialGradient
       gradientTransform="matrix(0.10943229,0,0,0.10943229,-242.6358,-163.41907)"
       xlink:href="#linearGradient4092"
       id="radialGradient4098"
       cx="1388"
       cy="1791"
       fx="1388"
       fy="1791"
       r="24.5"
       gradientUnits="userSpaceOnUse" />
    <radialGradient
       xlink:href="#linearGradient4100"
       id="radialGradient4106"
       cx="1236.7297"
       cy="1692.7965"
       fx="1236.7297"
       fy="1692.7965"
       r="16.763456"
       gradientTransform="matrix(0.10943229,0,0,0.0882162,-242.6358,-126.88552)"
       gradientUnits="userSpaceOnUse" />
    <radialGradient
       xlink:href="#linearGradient4297"
       id="radialGradient4303"
       cx="1623.2994"
       cy="2339.2844"
       fx="1623.2994"
       fy="2339.2844"
       r="53.785976"
       gradientTransform="matrix(0.10943229,0,0,0.1296603,-50.224839,-263.66635)"
       gradientUnits="userSpaceOnUse" />
    <linearGradient
       id="linearGradient4038"
       osb:paint="solid">
      <stop
         style="stop-color:#000000;stop-opacity:1;"
         offset="0"
         id="stop4040" />
    </linearGradient>
    <linearGradient
       id="linearGradient3992"
       osb:paint="solid">
      <stop
         style="stop-color:#ffffff;stop-opacity:1;"
         offset="0"
         id="stop3994" />
    </linearGradient>
    <linearGradient
       id="linearGradient3948"
       osb:paint="solid">
      <stop
         style="stop-color:#dc7f25;stop-opacity:1;"
         offset="0"
         id="stop3950" />
    </linearGradient>
    <linearGradient
       id="linearGradient3930"
       osb:paint="solid">
      <stop
         style="stop-color:#ff7f00;stop-opacity:1;"
         offset="0"
         id="stop3932" />
    </linearGradient>
    <linearGradient
       id="linearGradient3905"
       osb:paint="gradient">
      <stop
         style="stop-color:#000000;stop-opacity:1;"
         offset="0"
         id="stop3907" />
      <stop
         style="stop-color:#000000;stop-opacity:0;"
         offset="1"
         id="stop3910" />
    </linearGradient>
    <linearGradient
       id="linearGradient4141"
       osb:paint="solid">
      <stop
         style="stop-color:#bf7f20;stop-opacity:1;"
         offset="0"
         id="stop4143" />
    </linearGradient>
    <linearGradient
       id="linearGradient3907"
       osb:paint="solid">
      <stop
         style="stop-color:#dcdcdc;stop-opacity:1;"
         offset="0"
         id="stop3909" />
    </linearGradient>
    <linearGradient
       id="linearGradient3901"
       osb:paint="solid">
      <stop
         style="stop-color:#252525;stop-opacity:1;"
         offset="0"
         id="stop3903" />
    </linearGradient>
    <linearGradient
       id="linearGradient3889"
       osb:paint="solid">
      <stop
         style="stop-color:#7f2000;stop-opacity:1;"
         offset="0"
         id="stop3891" />
    </linearGradient>
    <linearGradient
       id="linearGradient3833"
       osb:paint="solid">
      <stop
         style="stop-color:#bf2000;stop-opacity:1;"
         offset="0"
         id="stop3835" />
    </linearGradient>
    <linearGradient
       id="linearGradient3827"
       osb:paint="solid">
      <stop
         style="stop-color:#5a3f3f;stop-opacity:1;"
         offset="0"
         id="stop3829" />
    </linearGradient>
  </defs>
  <metadata
     id="metadata7">
    <rdf:RDF>
      <cc:Work
         rdf:about="">
        <dc:format>image/svg+xml</dc:format>
        <dc:type
           rdf:resource="http://purl.org/dc/dcmitype/StillImage" />
        <dc:title />
      </cc:Work>
    </rdf:RDF>
  </metadata>
  <g
     id="g4480">
    <path
       inkscape:connector-curvature="0"
       style="fill:none;stroke:#ff7f00;stroke-width:0.10943228px;stroke-linecap:butt;stroke-linejoin:miter;stroke-opacity:1"
       d="m 107.83932,22.136983 c 51.00151,15.668298 15.01821,35.904186 -18.184385,29.01762"
       id="path3803" />
    <path
       inkscape:connector-curvature="0"
       style="fill:none;stroke:#ff7f00;stroke-width:0.10943228px;stroke-linecap:butt;stroke-linejoin:miter;stroke-opacity:1"
       d="M 121.53562,49.839212 C 146.5613,81.767061 106.79489,63.282352 89.809691,51.30944"
       id="path3805" />
    <path
       inkscape:connector-curvature="0"
       style="fill:none;stroke:#ff7f00;stroke-width:0.10943228px;stroke-linecap:butt;stroke-linejoin:miter;stroke-opacity:1"
       d="m 122.77371,49.37489 c 17.32068,22.913705 8.03426,28.750592 -27.31525,14.547567"
       id="path3807" />
    <path
       inkscape:connector-curvature="0"
       style="fill:none;stroke:#ff7f00;stroke-width:0.10943228px;stroke-linecap:butt;stroke-linejoin:miter;stroke-opacity:1"
       d="M 102.34362,66.498115 C 88.716728,87.70504 110.08538,111.14672 98.089386,145.63596"
       id="path3809" />
    <path
       inkscape:connector-curvature="0"
       style="fill:none;stroke:#ff7f00;stroke-width:0.10943228px;stroke-linecap:butt;stroke-linejoin:miter;stroke-opacity:1"
       d="M 107.60717,22.136983 C 93.587926,18.609227 79.471225,24.532907 72.088805,35.092409"
       id="path3811" />
    <path
       inkscape:connector-curvature="0"
       style="fill:none;stroke:#ff7f00;stroke-width:0.10943228px;stroke-linecap:butt;stroke-linejoin:miter;stroke-opacity:1"
       d="M 104.27981,21.51795 C 105.41594,12.371921 103.71077,4.5071685 94.375135,0.0836919 93.854473,7.3512979 91.509778,15.320467 93.369192,21.672786"
       id="path3813" />
    <path
       inkscape:connector-curvature="0"
       style="fill:none;stroke:#ff7f00;stroke-width:0.10943228px;stroke-linecap:butt;stroke-linejoin:miter;stroke-opacity:1"
       d="M 94.45251,0.16095349 C 90.841954,1.566713 90.333245,21.078775 89.11327,22.756142"
       id="path3815" />
    <path
       inkscape:connector-curvature="0"
       style="fill:none;stroke:#ff7f00;stroke-width:0.10943228px;stroke-linecap:butt;stroke-linejoin:miter;stroke-opacity:1"
       d="M 99.250091,21.131077 C 99.102064,17.672681 98.683729,13.332988 97.315597,10.607322"
       id="path3817" />
    <path
       inkscape:connector-curvature="0"
       style="fill:none;stroke:#ff7f00;stroke-width:0.10943228px;stroke-linecap:butt;stroke-linejoin:miter;stroke-opacity:1"
       d="M 73.63721,33.086367 C 75.936119,26.726585 71.079708,16.320728 60.714702,10.916933 60.439207,17.027057 60.957267,35.603138 72.399137,39.857166"
       id="path3819" />
    <path
       inkscape:connector-curvature="0"
       style="fill:none;stroke:#ff7f00;stroke-width:0.10943228px;stroke-linecap:butt;stroke-linejoin:miter;stroke-opacity:1"
       d="m 60.714702,10.994257 c -4.631299,11.379967 4.473383,27.027884 8.279689,31.184268"
       id="path3821" />
    <path
       inkscape:connector-curvature="0"
       style="fill:none;stroke:#ff7f00;stroke-width:0.10943228px;stroke-linecap:butt;stroke-linejoin:miter;stroke-opacity:1"
       d="M 71.85746,36.142903 C 72.91938,34.377238 70.345854,22.160814 67.059885,23.220338"
       id="path3823" />
    <path
       inkscape:connector-curvature="0"
       style="fill:none;stroke:#ff7f00;stroke-width:0.10943228px;stroke-linecap:butt;stroke-linejoin:miter;stroke-opacity:1"
       d="m 132.7072,36.635258 c -3.01215,-3.354357 -8.98649,-4.734781 -11.28366,-3.810151 1.39571,2.719646 4.66772,11.045021 6.85553,13.756325"
       id="path3825" />
    <path
       inkscape:connector-curvature="0"
       style="fill:none;stroke:#ff7f00;stroke-width:0.10943228px;stroke-linecap:butt;stroke-linejoin:miter;stroke-opacity:1"
       d="M 124.24394,38.696424 C 115.40447,44.84035 89.532878,27.145566 71.470568,43.648753 50.026822,68.291311 83.5638,108.737 58.006383,147.80261"
       id="path3829" />
    <path
       inkscape:connector-curvature="0"
       style="fill:none;stroke:#ff7f00;stroke-width:0.10943228px;stroke-linecap:butt;stroke-linejoin:miter;stroke-opacity:1"
       d="M 67.911073,40.863072 C 59.141488,52.208108 58.456149,60.77712 58.16115,61.987907"
       id="path3837" />
    <path
       inkscape:connector-curvature="0"
       style="fill:none;stroke:#ff7f00;stroke-width:0.10943228px;stroke-linecap:butt;stroke-linejoin:miter;stroke-opacity:1"
       d="M 58.625435,62.993875 C 51.95078,49.141663 43.683207,41.516973 38.654023,10.113149"
       id="path3839" />
    <path
       inkscape:connector-curvature="0"
       style="fill:none;stroke:#ff7f00;stroke-width:0.10943228px;stroke-linecap:butt;stroke-linejoin:miter;stroke-opacity:1"
       d="M 32.083973,14.631133 C 39.962422,53.122453 47.250993,57.991438 54.75641,75.219894 55.786485,127.77577 50.357605,142.01968 41.911277,143.00499 11.127132,132.6198 93.470742,70.553846 12.971043,38.54165 40.498537,57.574715 -22.761399,87.465855 16.530538,145.63596"
       id="path3841" />
    <path
       inkscape:connector-curvature="0"
       style="fill:none;stroke:#ff7f00;stroke-width:0.10943228px;stroke-linecap:butt;stroke-linejoin:miter;stroke-opacity:1"
       d="M 97.856899,89.478921 C 115.55801,102.66525 132.8205,110.65976 152.46361,115.85209"
       id="path3843" />
    <path
       inkscape:connector-curvature="0"
       style="fill:none;stroke:#ff7f00;stroke-width:0.10943228px;stroke-linecap:butt;stroke-linejoin:miter;stroke-opacity:1"
       d="m 99.717247,100.96932 c 17.363253,11.76603 34.726513,16.9805 52.089763,22.52746"
       id="path3845" />
    <path
       inkscape:connector-curvature="0"
       style="fill:none;stroke:#ff7f00;stroke-width:0.10943228px;stroke-linecap:butt;stroke-linejoin:miter;stroke-opacity:1"
       d="M 49.385118,76.393869 C 35.770617,64.96599 24.329932,76.640767 13.435321,70.731824"
       id="path3847" />
    <circle
       style="fill:url(#radialGradient4098);fill-opacity:1;stroke:#ff7f00;stroke-width:0.10943229;stroke-miterlimit:4;stroke-dasharray:none;stroke-dashoffset:0;stroke-opacity:1"
       id="path3849"
       transform="scale(-1,1)"
       cx="-90.743774"
       cy="32.574184"
       r="2.626375" />
    <ellipse
       style="fill:url(#radialGradient4106);fill-opacity:1;stroke:#ff7f00;stroke-width:0.10943229;stroke-miterlimit:4;stroke-dasharray:none;stroke-dashoffset:0;stroke-opacity:1"
       id="path3851"
       transform="scale(-1,1)"
       cx="-107.29762"
       cy="22.446587"
       rx="1.7797472"
       ry="1.4240924" />
    <path
       inkscape:connector-curvature="0"
       style="fill:none;stroke:#ff7f00;stroke-width:0.10943228px;stroke-linecap:butt;stroke-linejoin:miter;stroke-opacity:1"
       d="M 38.720404,10.145508 C 39.85149,1.0744212 27.590685,-8.5639616 32.077087,14.66437 c 1.859791,-2.357419 3.771682,-4.589852 6.643317,-4.518862 z"
       id="path3865" />
    <path
       inkscape:connector-curvature="0"
       style="fill:none;stroke:#ff7f00;stroke-width:0.10943228px;stroke-linecap:butt;stroke-linejoin:miter;stroke-opacity:1"
       d="m 152.27908,115.77978 c 25.88167,2.57246 11.43871,10.58547 -0.46979,7.74428 0.90868,-2.70359 2.56181,-4.22242 0.46979,-7.74428 z"
       id="path3867" />
    <path
       inkscape:connector-curvature="0"
       style="fill:none;stroke:#ff7f00;stroke-width:0.10943228px;stroke-linecap:butt;stroke-linejoin:miter;stroke-opacity:1"
       d="M 121.41955,32.738125 C 106.99442,22.072891 94.826313,22.116225 87.417554,23.318421"
       id="path3022" />
    <path
       inkscape:connector-curvature="0"
       style="fill:none;stroke:#ff7f00;stroke-width:0.10943228px;stroke-linecap:butt;stroke-linejoin:miter;stroke-opacity:1"
       d="M 58.577673,62.923951 54.774898,75.289818"
       id="path3024" />
    <path
       inkscape:connector-curvature="0"
       style="fill:none;stroke:#ff7f00;stroke-width:0.10943228px;stroke-linecap:butt;stroke-linejoin:miter;stroke-opacity:1"
       d="M 18.81037,72.460552 C -1.2137198,114.09671 13.740003,128.74135 25.884772,145.54534"
       id="path3030" />
    <path
       inkscape:connector-curvature="0"
       style="fill:none;stroke:#ff7f00;stroke-width:0.10943228px;stroke-linecap:butt;stroke-linejoin:miter;stroke-opacity:1"
       d="m 72.399137,39.81841 -3.424086,2.321422"
       id="path3868" />
    <path
       inkscape:connector-curvature="0"
       style="fill:none;stroke:#ff7f00;stroke-width:0.10943228px;stroke-linecap:butt;stroke-linejoin:miter;stroke-opacity:1"
       d="m 97.453502,10.615349 c 3.101548,0.605676 4.739838,3.883335 4.486718,10.614877"
       id="path3870" />
    <path
       inkscape:connector-curvature="0"
       style="fill:none;stroke:#ff7f00;stroke-width:0.10943228px;stroke-linecap:butt;stroke-linejoin:miter;stroke-opacity:1"
       d="m 67.852067,23.199957 c 4.504551,-0.03512 5.415511,6.106236 5.471613,10.17727"
       id="path3872" />
    <path
       inkscape:connector-curvature="0"
       style="fill:none;stroke:#ff7f00;stroke-width:0.10943228px;stroke-linecap:butt;stroke-linejoin:miter;stroke-opacity:1"
       d="m 71.901057,36.058304 c -0.458239,1.822169 0.02458,2.781605 0.410371,3.830155"
       id="path3874" />
    <path
       inkscape:connector-curvature="0"
       style="fill:none;stroke:#ff7f00;stroke-width:0.10943228px;stroke-linecap:butt;stroke-linejoin:miter;stroke-opacity:1"
       d="m 95.613221,63.76762 c -9.06074,33.144844 13.978789,45.09631 0.464278,81.71363"
       id="path3876" />
    <path
       inkscape:connector-curvature="0"
       style="fill:none;stroke:#ff7f00;stroke-width:0.10943228px;stroke-linecap:butt;stroke-linejoin:miter;stroke-opacity:1"
       d="M 152.13953,122.77014 C 107.97329,107.80848 99.168151,99.291268 98.244154,92.282287"
       id="path3878" />
    <path
       inkscape:connector-curvature="0"
       style="fill:none;stroke:#ff7f00;stroke-width:0.10943228px;stroke-linecap:butt;stroke-linejoin:miter;stroke-opacity:1"
       d="M 97.779869,52.315346 C 127.34035,70.287068 135.61418,70.374113 119.98801,50.380859"
       id="path3882" />
    <path
       inkscape:connector-curvature="0"
       style="fill:none;stroke:#ff7f00;stroke-width:0.10943228px;stroke-linecap:butt;stroke-linejoin:miter;stroke-opacity:1"
       d="M 32.779007,13.788844 C 42.9446,58.647096 54.398354,66.638904 57.620137,66.425807"
       id="path3884" />
    <path
       inkscape:connector-curvature="0"
       style="fill:none;stroke:#ff7f00;stroke-width:0.10943228px;stroke-linecap:butt;stroke-linejoin:miter;stroke-opacity:1"
       d="m 44.696964,73.20802 c 9.3701,26.118367 -26.715576,58.45353 -4.642819,74.74936 27.253485,-3.71062 8.555523,-84.70883 28.221161,-106.683166"
       id="path3890" />
    <path
       inkscape:connector-curvature="0"
       style="fill:none;stroke:#ff7f00;stroke-width:0.10943228px;stroke-linecap:butt;stroke-linejoin:miter;stroke-opacity:1"
       d="M 79.053837,38.696424 C 45.899166,63.321296 84.733115,98.932303 65.434902,147.493"
       id="path3892" />
    <path
       inkscape:connector-curvature="0"
       style="fill:none;stroke:#ff7f00;stroke-width:0.10943228px;stroke-linecap:butt;stroke-linejoin:miter;stroke-opacity:1"
       d="M 47.018374,74.600861 C 45.837419,65.98588 41.334104,57.409531 32.316128,48.794488"
       id="path3894" />
    <path
       inkscape:connector-curvature="0"
       style="fill:none;stroke:#ff7f00;stroke-width:0.10943228px;stroke-linecap:butt;stroke-linejoin:miter;stroke-opacity:1"
       d="M 42.839845,72.434275 C 43.50807,65.887046 40.821387,58.394553 29.530421,46.898694"
       id="path3896" />
    <path
       inkscape:connector-curvature="0"
       style="fill:none;stroke:#ff7f00;stroke-width:0.10943228px;stroke-linecap:butt;stroke-linejoin:miter;stroke-opacity:1"
       d="M 15.756731,71.776486 C 16.667828,61.7792 27.866958,52.461027 16.337083,41.366025"
       id="path3898" />
    <path
       inkscape:connector-curvature="0"
       style="fill:none;stroke:#ff7f00;stroke-width:0.10943228px;stroke-linecap:butt;stroke-linejoin:miter;stroke-opacity:1"
       d="M 20.283489,72.472906 C 20.690266,64.832601 24.844167,58.0428 21.328113,49.684438"
       id="path3900" />
    <path
       inkscape:connector-curvature="0"
       style="fill:none;stroke:#ff7f00;stroke-width:0.10943228px;stroke-linecap:butt;stroke-linejoin:miter;stroke-opacity:1"
       d="M 34.912938,11.600183 C 31.660972,12.563758 29.209854,-1.8761937 35.56953,1.1494879"
       id="path3902" />
    <path
       inkscape:connector-curvature="0"
       style="fill:none;stroke:#ff7f00;stroke-width:0.10943228px;stroke-linecap:butt;stroke-linejoin:miter;stroke-opacity:1"
       d="m 37.758178,10.122932 c 0.532108,-0.08962 0.78016,-1.4100868 0.875458,-3.3924234"
       id="path3904" />
    <path
       inkscape:connector-curvature="0"
       style="fill:none;stroke:#ff7f00;stroke-width:0.10943228px;stroke-linecap:butt;stroke-linejoin:miter;stroke-opacity:1"
       d="m 153.20925,119.99286 c 0.65725,5.61651 14.96287,3.156 12.91301,-0.65654"
       id="path3906" />
    <path
       inkscape:connector-curvature="0"
       style="fill:none;stroke:#000000;stroke-width:0.10943228px;stroke-linecap:butt;stroke-linejoin:miter;stroke-opacity:1"
       d="m 58.470673,147.02886 -0.232148,0.69636 c -25.723424,2.84005 -25.294973,2.29502 -32.499729,-2.32142"
       id="path3964" />
    <path
       inkscape:connector-curvature="0"
       style="fill:none;stroke:#000000;stroke-width:0.10943228px;stroke-linecap:butt;stroke-linejoin:miter;stroke-opacity:1"
       d="m 65.434902,147.41573 c -12.925048,1.48974 -10.722227,0.50697 -15.988106,1.26761 -7.989795,1.15397 -20.918969,2.93707 -33.1484,-3.27954"
       id="path3966" />
    <path
       inkscape:connector-curvature="0"
       style="fill:none;stroke:#000000;stroke-width:0.10943228px;stroke-linecap:butt;stroke-linejoin:miter;stroke-opacity:1"
       d="m 98.398915,145.4038 c -0.526827,0.24702 -1.385717,0.16192 -2.321428,0 -6.531257,5.42725 -18.867004,3.26411 -30.565204,1.93455"
       id="path3968" />
    <path
       inkscape:connector-curvature="0"
       style="fill:#ff7f00;fill-opacity:1;stroke:none"
       d="m 95.188427,22.779659 c 9.589403,0.166689 18.658653,4.351107 26.270613,9.919209 0.85508,2.015511 1.93082,3.978093 2.64544,6.030856 -0.85455,0.83953 -2.19468,1.06567 -3.34186,1.267102 -4.4381,0.405875 -8.8331,-0.713352 -13.17264,-1.460821 -7.864574,-1.460946 -16.077016,-3.09849 -24.013437,-1.165257 -4.787396,1.217936 -9.536036,3.504741 -12.806446,7.283409 -4.66613,5.694907 -6.601927,13.165763 -6.756162,20.447605 -0.22456,10.49265 1.952975,20.824882 3.116401,31.208914 1.382782,11.095564 1.823342,22.545584 -1.077322,33.441784 -1.677756,6.41071 -4.371783,12.597 -8.064523,18.07561 -6.512669,0.64738 -13.037924,1.55062 -19.597226,1.65222 -3.271025,0.0836 -6.672729,-0.25399 -9.498428,-2.03608 -1.632684,-0.9082 -3.281704,-1.90953 -4.289761,-3.53535 -5.584652,-7.50231 -11.409354,-15.1697 -14.027756,-24.28695 -1.413436,-4.75359 -1.7373138,-9.74599 -1.4853608,-14.68346 0.2313082,-6.436417 1.9601988,-12.710534 3.9638898,-18.796264 1.590096,-4.666549 3.538022,-9.201215 5.663474,-13.650529 1.273656,-0.263078 2.697308,0.0439 4.028088,-0.148064 6.071551,-0.454915 12.284969,-2.234565 18.31548,-0.528915 1.262707,0.38035 2.574705,0.788356 3.699751,1.455678 2.497638,7.01707 1.69477,14.751883 -0.253746,21.799871 -2.914932,10.419783 -7.791223,20.203403 -10.567667,30.654723 -1.295354,5.4492 -1.791961,11.64117 1.148871,16.67512 1.203876,2.10243 2.976773,3.92077 4.937837,5.34396 1.87661,0.0383 3.663742,-0.95623 5.261564,-1.88751 4.183659,-2.89204 6.248945,-7.83312 7.659847,-12.56413 2.592559,-8.94021 3.062211,-18.33815 3.719518,-27.58941 0.893525,-13.810826 0.985712,-27.705808 3.018507,-41.418422 1.199286,-7.232487 2.77102,-14.665027 6.852984,-20.863639 0.552464,-0.717429 1.024631,-1.559279 1.702382,-2.142504 0.556321,0.772993 1.021164,0.820779 1.751255,0.08297 0.715046,-0.52415 1.579742,-0.959248 2.199967,-1.533818 -0.642864,-1.602488 -0.752874,-3.507312 0.135427,-5.049095 2.335094,-3.50148 5.644354,-6.295628 9.155046,-8.569827 2.785437,-1.688467 5.794105,-3.339244 9.145232,-3.324569 1.518761,-0.07663 3.039874,-0.128059 4.560761,-0.104416 z m -4.488058,7.298021 c -1.952693,-0.136273 -3.18916,2.415617 -2.011887,3.927046 0.892196,1.308242 2.937841,1.48484 3.965746,0.246648 1.19778,-1.364432 0.470787,-3.794723 -1.358995,-4.110856 -0.190928,-0.03136 -0.393294,-0.06428 -0.594864,-0.06284 z"
       id="path3972" />
    <path
       inkscape:connector-curvature="0"
       style="fill:#ff7f00;fill-opacity:1;stroke:none"
       d="m 98.243188,89.726447 c 5.704012,4.068148 11.525592,8.017018 17.680452,11.415213 11.37809,6.37326 23.63374,11.1848 36.23911,14.55553 1.36582,1.63497 1.47958,4.07009 0.49511,5.9381 -0.14525,1.01387 -0.79232,1.44728 -1.70186,0.80504 -13.97133,-4.88918 -28.05996,-9.82464 -40.93166,-17.21359 -4.11586,-2.49514 -8.36548,-5.358456 -10.755862,-9.65331 -0.928218,-1.776577 -1.3329,-3.840377 -1.296126,-5.817948 0.08965,0.0207 0.182869,-0.131382 0.270836,-0.02947 z"
       id="path3974" />
    <path
       inkscape:connector-curvature="0"
       style="fill:#ff7f00;fill-opacity:1;stroke:none"
       d="m 38.491072,10.073138 c 0.653117,0.275433 0.284664,1.302159 0.569145,1.845185 2.13728,12.931031 5.682722,25.799475 12.145133,37.267113 2.464745,4.5965 5.216562,9.078676 7.438453,13.791632 -0.449635,1.144249 -0.55168,2.512256 -1.291278,3.506247 -1.186248,-0.09225 -2.245553,-0.896787 -3.206456,-1.562102 C 49.830257,61.31331 47.155187,56.224456 44.70962,51.259082 39.228287,39.491929 35.73701,26.900799 32.850644,14.273923 c -0.212188,-0.967149 0.923633,-1.564359 1.465919,-2.196311 1.142719,-1.054884 2.58477,-1.950604 4.174509,-2.004474 z"
       id="path3976" />
    <path
       inkscape:connector-curvature="0"
       style="fill:#ff7f00;fill-opacity:1;stroke:none"
       d="m 94.325179,0.1620196 c 0.314226,0.29129875 0.04202,0.80648051 0.07727,1.1821901 -0.512328,5.3340596 -1.722024,10.6355713 -1.554576,16.0106453 0.03349,1.437115 0.325176,2.839802 0.630949,4.236719 -0.173281,0.407066 -0.772779,0.269161 -1.125542,0.435098 -1.005059,0.181552 -1.972867,0.522582 -2.961107,0.737685 -0.489024,-0.08817 -0.154147,-0.641108 -0.113635,-0.940622 0.674785,-3.488499 0.962152,-7.058335 1.490948,-10.579381 0.479248,-3.0602364 0.853484,-6.1930933 1.993575,-9.0897757 0.317343,-0.7263968 0.702754,-1.49167536 1.339648,-1.98766714 0.07123,-0.0363731 0.149243,-0.0382545 0.222466,-0.006271 z"
       id="path3986" />
    <path
       inkscape:connector-curvature="0"
       style="fill:#ff3f00;fill-opacity:1;stroke:none"
       d="m 100.27379,21.006468 c 1.80258,0.0088 3.61467,0.207515 5.37794,0.565791 0.39337,0.195725 -0.0312,0.595265 0.0556,0.892333 0.0186,0.822347 0.9434,1.318025 1.69029,1.22358 0.65907,-0.0069 1.31557,-0.381416 1.52584,-1.032621 0.21584,-0.45711 0.74893,-0.0533 1.0893,0 5.65593,1.915674 11.33144,4.025442 16.35754,7.28642 2.2712,1.519206 4.44479,3.337989 5.95586,5.639155 0.25158,0.226141 0.18438,0.801903 -0.23456,0.609376 -1.00162,-0.815888 -2.04447,-1.579473 -3.23729,-2.097916 -2.13486,-0.967212 -4.52926,-1.6319 -6.87776,-1.270614 -0.62134,0.327985 -1.06077,-0.354325 -1.55547,-0.61734 -6.78226,-4.850987 -14.70247,-8.394923 -23.078069,-9.120442 -2.792097,-0.269663 -5.605472,-0.127431 -8.388507,0.13295 -0.435079,-0.09438 -0.169436,-0.688707 0.200698,-0.650389 1.346515,-0.279823 2.706664,-0.639854 4.043133,-0.97455 1.216443,-0.324913 2.49479,-0.430708 3.75051,-0.541772 1.108409,-0.04766 2.215558,-0.06083 3.324945,-0.04578 z"
       id="path3992" />
    <path
       inkscape:connector-curvature="0"
       style="fill:#ff3f00;fill-opacity:1;stroke:none"
       d="m 60.671995,11.74969 c 0.238821,0.515558 0.09996,1.141928 0.167511,1.69756 0.03706,5.501627 0.701136,11.066028 2.635109,16.228194 1.450191,3.849784 3.95933,7.559093 7.699349,9.479093 0.387675,0.233917 0.86326,0.30359 1.211477,0.589935 -0.01988,0.4282 -0.58372,0.564035 -0.858438,0.834325 -0.763472,0.486334 -1.468039,1.100726 -2.292392,1.472611 -0.738814,0.09482 -1.100853,-0.75004 -1.518579,-1.204203 -3.13107,-4.239039 -5.443669,-9.060864 -7.015622,-14.086505 -0.811742,-2.733066 -1.431327,-5.560639 -1.343881,-8.428725 -0.02521,-1.621427 -0.0092,-3.260664 0.432846,-4.833866 0.169405,-0.583663 0.240766,-1.224709 0.561006,-1.745911 0.09944,-0.100967 0.213648,-0.06685 0.321614,0 z"
       id="path3994" />
    <path
       inkscape:connector-curvature="0"
       style="fill:#ff3f00;fill-opacity:1;stroke:none"
       d="m 68.073598,41.04707 c 0.185892,0.702754 -0.667854,1.274377 -0.964615,1.857852 -4.050822,5.765709 -5.706339,12.817271 -6.938925,19.656865 -2.35698,14.187912 -2.377901,28.614318 -3.347001,42.931543 -0.7163,9.71489 -1.175247,19.5912 -4.078734,28.95127 -1.279702,3.90077 -2.998621,7.83744 -6.187292,10.5532 -1.577817,1.46019 -3.628165,2.34462 -5.692298,2.8679 -1.050594,0.3229 -1.803167,-0.82179 -2.577727,-1.34449 -3.665724,-3.17181 -5.659135,-8.02201 -5.426291,-12.87412 -0.1866,-6.82994 2.559861,-13.23569 4.774616,-19.55791 2.761963,-7.69399 6.058995,-15.252702 7.693673,-23.288597 1.095698,-5.597702 1.155701,-11.526776 -0.51303,-17.007206 -0.08538,-0.68438 0.728435,-0.278506 0.996273,-0.04327 1.243648,0.807672 2.581189,1.572386 3.617523,2.62125 0.819951,8.949488 -1.598582,17.787348 -4.488058,26.169105 -2.908811,8.22691 -6.672259,16.17608 -9.150218,24.54397 -0.999929,3.7221 -1.754885,8.04631 0.304682,11.54421 1.27131,2.10124 3.558598,3.61226 5.919604,4.19787 3.557652,-0.31137 5.877011,-3.57087 7.222523,-6.57272 2.937715,-6.76221 3.73783,-14.20353 4.495746,-21.48242 1.251236,-13.23199 0.836375,-26.542243 1.02529,-39.812234 1.168958,-3.984427 2.585435,-7.933736 3.56433,-11.950398 0.0097,-0.544092 -0.3969,-1.045352 -0.15959,-1.62011 1.307922,-7.421314 4.827024,-14.33146 9.4404,-20.225352 0.112481,-0.125488 0.306607,-0.260194 0.469119,-0.116018 z"
       id="path4002" />
    <path
       inkscape:connector-curvature="0"
       style="fill:#ff3f00;fill-opacity:1;stroke:none"
       d="m 13.497162,70.733893 c 1.651303,0.651017 3.314911,1.279269 5.07808,1.542723 0.608492,0.341156 -0.265329,1.13039 -0.334256,1.605499 -4.170069,9.025934 -7.695957,18.529234 -8.8014557,28.466445 -0.8440013,7.44727 0.038255,15.13267 3.0081657,22.02438 3.197175,7.42376 8.154227,13.94346 13.002241,20.33927 1.322189,1.58449 3.271313,2.45819 5.056382,3.39229 2.540972,1.19699 5.420521,1.16225 8.182974,1.31063 0.592801,0.57902 -0.72276,0.46595 -1.063965,0.43804 -4.96797,0.0314 -9.998446,-0.24451 -14.758618,-1.77381 -2.168762,-0.69065 -4.415845,-1.36952 -6.337213,-2.60093 -1.626663,-1.60958 -2.534035,-3.80718 -3.781572,-5.71739 C 6.7870372,129.52105 2.8689028,117.78281 3.2384853,105.81623 3.335332,94.784948 7.0618301,84.168943 11.643718,74.267545 12.232549,73.11508 12.627499,71.814364 13.337565,70.74838 l 0.149927,-0.01881 0.0096,0.0063 z"
       id="path4004" />
    <path
       inkscape:connector-curvature="0"
       style="fill:#ff3f00;fill-opacity:1;stroke:none"
       d="m 32.903541,13.886612 c 1.833809,7.745035 3.802042,15.472699 6.345033,23.021319 2.592358,7.637922 5.535397,15.25471 9.953544,22.051033 1.5804,2.40207 3.473341,4.633814 5.785876,6.348244 0.742966,0.490598 1.546079,0.872516 2.411296,1.031617 0.297958,0.416912 -0.20194,0.970035 -0.233817,1.434921 -0.767724,2.428786 -1.460156,4.906487 -2.289031,7.300467 C 54.30364,75.196941 54.271813,74.13704 53.953536,73.759826 50.179972,65.536108 45.364895,57.803803 41.933025,49.414274 37.345662,38.493612 34.586489,26.9119 32.107559,15.362296 c -0.267688,-0.606052 0.09517,-1.258762 0.631839,-1.550876 l 0.09948,0.04515 0.06466,0.0301 z"
       id="path4006" />
    <path
       inkscape:connector-curvature="0"
       style="fill:#ff3f00;fill-opacity:1;stroke:none"
       d="m 98.837387,94.661781 c 0.741009,0.872893 1.147435,2.055522 1.944753,2.910918 3.69317,4.521811 8.91417,7.342921 13.9723,10.070911 11.55214,5.94732 23.87488,10.247 36.09702,14.62357 0.38836,0.23405 1.5923,0.37057 1.18973,1.04466 -0.61986,0.57119 -1.48204,-0.27568 -2.18274,-0.32685 -12.00272,-3.84841 -24.06095,-7.71907 -35.37309,-13.33653 -5.19214,-2.59165 -10.33273,-5.41402 -15.035443,-8.80055 -0.310275,-1.991364 -0.671003,-3.99264 -0.917218,-5.992661 0.01894,-0.137905 0.173168,-0.232161 0.304688,-0.193468 z"
       id="path4008" />
    <path
       inkscape:connector-curvature="0"
       style="fill:#be0000;fill-opacity:1;stroke:none"
       d="m 119.95541,50.302406 c 0.30049,0.196979 0.46259,0.579023 0.71191,0.84624 2.22147,2.955506 4.47788,5.937289 6.12419,9.257405 0.5645,1.231608 1.17867,2.574216 0.94385,3.963482 -0.22624,0.920868 -1.25148,1.327055 -2.12025,1.277199 -2.24046,-0.05832 -4.35407,-0.899044 -6.41139,-1.716875 -4.84057,-2.02473 -9.43797,-4.55348 -13.99816,-7.144565 -2.44367,-1.421186 -4.88814,-2.854226 -7.297338,-4.33361 -0.09121,-0.298259 0.335944,-0.152077 0.502552,-0.163365 3.933056,0.275432 7.893716,0.228022 11.815926,-0.181113 3.22162,-0.335198 6.42187,-0.917482 9.54234,-1.789434 0.0623,-0.0063 0.12326,-0.02195 0.18637,-0.01505 z"
       id="path4028" />
    <path
       inkscape:connector-curvature="0"
       style="fill:#7f0000;fill-opacity:1;stroke:none"
       d="m 121.56612,49.830433 c 2.43905,3.154241 4.8356,6.370819 6.62748,9.937834 0.80267,1.692982 1.59971,3.53315 1.35593,5.452837 -0.1625,1.064729 -1.02474,1.912098 -2.04842,2.176619 -1.09799,0.316196 -2.26445,0.214288 -3.39069,0.155589 -3.31786,-0.438108 -6.50686,-1.539086 -9.60781,-2.761725 -6.28587,-2.532449 -12.30856,-5.683242 -18.112935,-9.172807 -2.182583,-1.336713 -4.360984,-2.690358 -6.430673,-4.193071 -0.162863,-0.214727 0.198222,-0.2437 0.33617,-0.176096 2.480216,0.473289 4.979446,0.811873 7.493364,1.036133 3.851354,2.320418 7.715924,4.616129 11.668214,6.762771 3.79968,2.05709 7.65518,4.051718 11.7161,5.541575 1.67658,0.56253 3.4677,1.139859 5.25787,0.866873 0.72501,-0.142232 1.31847,-0.828117 1.24822,-1.588441 0.0347,-1.530557 -0.73884,-2.924777 -1.39713,-4.259358 -1.75199,-3.26286 -4.0762,-6.188704 -6.24775,-9.183656 -0.0241,-0.263266 0.37156,-0.225576 0.53602,-0.327923 0.32993,-0.08278 0.65992,-0.255051 0.99604,-0.267154 z"
       id="path4032" />
    <path
       inkscape:connector-curvature="0"
       style="fill:url(#radialGradient4303);fill-opacity:1;stroke:none"
       d="m 123.65856,32.672089 c 3.22236,0.306726 6.43575,1.631712 8.81651,3.849722 1.36891,1.898992 0.89384,4.59211 -0.36754,6.437107 -0.95727,1.472046 -2.29832,2.705786 -3.75778,3.66102 -0.99616,-1.103612 -1.57785,-2.587887 -2.31324,-3.886534 -1.59135,-3.211749 -3.04553,-6.485646 -4.50591,-9.761487 0.48158,-0.382043 1.487,-0.27838 2.12796,-0.299828 z"
       id="path4034" />
    <path
       inkscape:connector-curvature="0"
       style="fill:#000000;fill-opacity:1;stroke:none"
       d="m 33.714512,0.17719598 c 0.528759,0.0942566 1.112598,0.27185793 1.530689,0.6166503 0.01361,0.35219242 -0.490505,0.0895532 -0.696433,0.0894905 -0.903961,-0.2487798 -1.921857,0.18393523 -2.311733,1.04221613 -0.776379,1.6250645 -0.578766,3.5446888 -0.299859,5.2739185 0.311404,1.5383961 0.8196,3.1993946 2.089274,4.2124496 0.172007,0.16763 0.732793,0.06208 0.590028,0.408634 -0.717993,0.896723 -1.571326,1.688341 -2.328671,2.548754 -0.379792,0.192213 -0.401152,-0.446763 -0.452181,-0.672276 -0.536993,-3.20159 -1.014792,-6.4689648 -0.689171,-9.7185294 0.191316,-1.2807111 0.460559,-2.7641085 1.591137,-3.55942618 0.287718,-0.17804029 0.635176,-0.26564941 0.97692,-0.24188144 z"
       id="path4046" />
    <path
       inkscape:connector-curvature="0"
       style="fill:#000000;fill-opacity:1;stroke:none"
       d="m 38.676525,7.6323746 c 0.231784,0.2791325 0.08863,0.7992686 0.148515,1.1631255 -0.04365,0.4266319 0.106122,0.9317797 -0.107401,1.3153909 -0.245525,0.154649 -0.591954,0.113635 -0.853609,0.05832 0.02408,-0.2948111 0.347163,-0.5386366 0.372386,-0.8705102 0.193969,-0.5304836 0.124057,-1.1301388 0.307115,-1.6540376 0.04064,-0.011915 0.09074,-0.058323 0.132994,-0.011915 z"
       id="path4048" />
    <path
       inkscape:connector-curvature="0"
       style="fill:#000000;fill-opacity:1;stroke:none"
       d="m 166.37159,119.5942 c 0.0992,0.0445 0.15596,0.18989 0.22066,0.28414 0.25737,0.42438 0.2483,0.98246 -0.009,1.40407 -0.39179,0.64017 -1.04645,1.06103 -1.70145,1.39504 -1.38097,0.68049 -2.89696,1.03406 -4.4119,1.26177 -1.23668,0.17973 -2.48767,0.26107 -3.73741,0.23128 -1.62767,-0.01 -3.25228,-0.20695 -4.83809,-0.56949 -0.14309,-0.0289 -0.13985,-0.21874 -0.0315,-0.28898 0.11912,-0.0738 0.1713,-0.22288 0.12875,-0.35545 0.0147,-0.23668 0.15524,-0.44984 0.29986,-0.6275 0.15061,-0.21736 0.21229,-0.47655 0.26962,-0.72966 0.14127,-0.32548 0.2909,-0.64299 0.38954,-0.98571 0.0655,-0.16882 0.0734,-0.35771 0.15877,-0.51719 0.11856,-0.0777 0.19932,0.0657 0.20355,0.16983 0.14057,0.66424 0.52122,1.26829 1.05509,1.68733 0.87966,0.71637 2.0058,1.01613 3.1073,1.17398 0.80066,0.11934 1.6172,0.0995 2.42597,0.08 1.00814,-0.0596 2.00791,-0.22608 2.98037,-0.50013 0.87109,-0.26327 1.74321,-0.6001 2.47799,-1.15102 0.42477,-0.32912 0.82063,-0.77187 0.89289,-1.31972 0.012,-0.19109 -0.0181,-0.38524 -0.0284,-0.57131 0.0117,-0.052 0.0889,-0.1083 0.14751,-0.0713 z"
       id="path4050" />
    <path
       inkscape:connector-curvature="0"
       style="fill:#3f3f3f;fill-opacity:1;stroke:none"
       d="m 152.52982,115.77188 c 2.16532,0.1803 4.31536,0.49461 6.44898,0.89597 2.02057,0.40945 4.06253,0.87333 5.91853,1.79922 0.46682,0.26746 0.98382,0.52095 1.31066,0.96225 0.2468,0.52428 0.15825,1.19643 -0.22344,1.63717 -0.70303,0.86913 -1.78647,1.30185 -2.81857,1.64545 -1.44212,0.45692 -2.96419,0.66168 -4.47473,0.58799 -1.31367,-0.008 -2.65858,-0.24866 -3.81775,-0.88813 -0.78743,-0.43265 -1.41664,-1.16187 -1.63396,-2.04311 -0.10832,-0.27775 -0.11599,-0.57488 -0.0497,-0.85953 0.13135,-1.03752 -0.13056,-2.07528 -0.58519,-2.99978 -0.0765,-0.2227 -0.31019,-0.42513 -0.26116,-0.67341 0.0408,-0.0707 0.1158,-0.0678 0.1862,-0.0641 z"
       id="path4052" />
    <path
       inkscape:connector-curvature="0"
       style="fill:#3f3f3f;fill-opacity:1;stroke:none"
       d="m 34.21125,0.7496968 c 0.776736,0.0326104 1.544329,0.3222786 2.012602,0.9669614 1.249198,1.4729244 2.091933,3.3198024 2.415008,5.2210519 -0.01988,0.981009 -0.157233,1.9943774 -0.539251,2.9016994 -0.303333,0.6054875 -1.122112,0.5179415 -1.639495,0.8464285 -0.642243,0.235547 -1.120644,0.821845 -1.777317,0.988973 C 33.837315,11.650353 33.321168,10.82161 32.881272,10.204583 31.828157,8.2457638 31.539316,5.9453503 31.66254,3.7433324 31.793922,2.6775364 32.109635,1.3827777 33.185966,0.90196233 33.509029,0.76807151 33.863705,0.72818647 34.21125,0.7496968 Z"
       id="path4054" />
    <path
       inkscape:connector-curvature="0"
       style="fill:#dcdcdc;fill-opacity:1;stroke:none"
       d="m 97.609022,10.685273 c 2.462438,0.648822 3.708328,3.247621 4.011518,5.598142 0.28662,1.574079 0.25567,3.180769 0.24923,4.775606 -0.76015,0.190269 -1.70647,-0.06528 -2.519685,-0.193405 -0.367694,-0.91861 -0.08372,-2.041537 -0.309529,-3.008185 -0.264232,-2.407087 -0.716294,-4.854122 -1.557279,-7.123806 l 0.08706,-0.05331 0.03863,0.0063 z"
       id="path4066" />
    <path
       inkscape:connector-curvature="0"
       style="fill:#dcdcdc;fill-opacity:1;stroke:none"
       d="m 68.615583,23.264363 c 2.409816,0.581907 3.682374,3.021605 4.106435,5.272538 0.296642,1.668085 0.791197,3.454948 0.333266,5.125416 -0.201294,0.348492 -0.868346,1.595151 -0.919482,0.664061 -0.323709,-3.479844 -1.08777,-7.060217 -2.978547,-10.046389 -0.04873,-0.255177 -1.126922,-0.890327 -0.541672,-1.015626 z"
       id="path4068" />
    <path
       inkscape:connector-curvature="0"
       style="fill:#dcdcdc;fill-opacity:1;stroke:none"
       d="m 95.787204,64.248435 c 2.073395,0.730599 4.288836,1.334707 6.217126,2.339107 -1.79018,3.625588 -3.557791,7.378043 -3.994282,11.456225 -1.708007,14.03019 3.550812,27.647923 3.665982,41.618473 0.20381,6.42688 -0.0559,12.9114 -1.698966,19.15987 -0.645554,2.15072 -0.963411,4.55658 -2.096968,6.49514 -0.515934,0.26064 -1.942916,0.22107 -1.380957,-0.68858 3.176737,-9.28779 4.886541,-19.25685 3.480691,-29.0633 -1.271398,-10.63043 -5.399142,-20.735018 -6.204093,-31.433553 -0.251507,-5.697791 -0.333059,-11.480682 1.115496,-17.044959 0.242571,-0.937612 0.344115,-1.943643 0.738663,-2.817916 0.19972,0.132449 0.02571,-0.10937 0.157308,-0.02007 z"
       id="path4070" />
    <path
       inkscape:connector-curvature="0"
       style="fill:#dcdcdc;fill-opacity:1;stroke:none"
       d="m 36.283391,52.163018 c 2.549118,2.133536 4.761973,4.767014 6.757447,7.441319 3.259662,4.786894 5.621659,10.297803 6.121376,16.107159 -1.044844,-0.181364 -2.347605,-1.186329 -2.342067,-2.485227 -1.29294,-7.631337 -5.411899,-14.44522 -10.331568,-20.269878 -0.05801,-0.181928 -0.695272,-0.736932 -0.205188,-0.793373 z"
       id="path4072" />
    <path
       inkscape:connector-curvature="0"
       style="fill:#dcdcdc;fill-opacity:1;stroke:none"
       d="m 22.139272,52.224538 c 0.53868,2.983351 0.42063,6.10492 0.06158,9.110283 -0.651267,3.489627 -1.436946,6.980007 -1.956098,10.478163 -0.578947,1.129198 -2.126211,0.173024 -3.050434,0.15722 -0.754442,-0.02947 -1.686792,-0.526219 -1.183087,-1.413348 1.291912,-6.593699 5.593877,-12.408888 5.587744,-19.289809 0.409511,-0.179985 0.355171,0.742075 0.540323,0.957491 z"
       id="path4074" />
    <path
       inkscape:connector-curvature="0"
       style="fill:#ededed;fill-opacity:1;stroke:none"
       d="m 76.096236,40.658943 c -2.013335,2.592904 -4.5945,4.786456 -6.294066,7.653162 -4.628164,6.924444 -5.117822,15.638635 -4.482659,23.725954 1.526155,15.301933 5.994245,30.308991 5.619721,45.791221 0.06924,8.53609 -1.247079,17.06334 -3.995289,25.14241 -0.552402,1.3564 -0.743549,2.99621 -1.572079,4.18536 -2.244575,0.5444 -4.622802,0.8051 -6.928433,0.77286 -0.476357,-0.46915 0.579995,-1.21273 0.650829,-1.72095 6.825653,-10.88858 9.424119,-23.94849 9.017781,-36.69646 C 67.878287,96.977936 65.106427,84.674906 64.228568,72.196909 64.026684,66.25686 63.740835,60.142095 65.73552,54.447001 c 1.672324,-5.554745 4.949539,-11.016236 10.128166,-13.870086 0.08414,-0.03198 0.197494,-0.06673 0.23255,0.08203 z"
       id="path4076" />
    <path
       inkscape:connector-curvature="0"
       style="fill:#ededed;fill-opacity:1;stroke:none"
       d="m 31.892424,48.688504 c 2.797804,2.211425 5.002136,5.157023 7.263568,7.913417 3.849201,5.073992 6.640752,11.06534 7.639741,17.344913 -0.807911,0.278944 -1.672444,-0.741887 -2.463924,-0.917544 -1.704044,-0.211717 -1.342852,-1.83189 -1.440069,-3.100184 -0.281873,-7.581481 -5.174269,-13.912604 -9.92247,-19.41304 -0.29698,-0.561338 -1.430957,-1.17479 -1.186279,-1.827562 0.03524,-0.01066 0.07415,-0.01066 0.109433,0 z"
       id="path4078" />
    <path
       inkscape:connector-curvature="0"
       style="fill:#ededed;fill-opacity:1;stroke:none"
       d="m 20.060057,46.513578 c 2.239583,4.087652 1.316476,9.091029 -0.407141,13.192792 -1.466264,3.813662 -3.167938,7.593396 -4.011187,11.579893 -0.580823,0.301145 -1.485818,-0.329992 -1.990301,-0.697549 2.486632,-6.305599 6.171915,-12.472227 6.51122,-19.410593 0.04986,-1.731613 -0.217267,-3.4557 -0.642914,-5.129681 0.330243,-0.323846 0.350336,0.350939 0.540323,0.465138 z"
       id="path4080" />
    <path
       inkscape:connector-curvature="0"
       style="fill:#ededed;fill-opacity:1;stroke:none"
       d="m 68.907089,23.326071 c 3.137692,1.207275 3.929134,5.026331 4.222779,8.022098 0.06917,1.16206 0.07502,2.442395 -0.748303,3.358873 -0.588273,-1.009794 -0.421063,-2.668598 -0.813905,-3.919082 -0.52388,-2.562363 -1.443663,-5.094247 -2.89995,-7.277201 -0.03023,-0.138469 0.117824,-0.22752 0.239379,-0.184688 z"
       id="path4088" />
    <path
       inkscape:connector-curvature="0"
       style="fill:#ededed;fill-opacity:1;stroke:none"
       d="m 98.029753,10.850708 c 3.008117,1.297268 3.696737,4.931008 3.752757,7.892535 -0.11724,0.871827 0.72544,2.784741 -0.82544,2.346319 -0.76587,0 -2.015976,-0.131571 -1.750922,-1.217435 -0.09399,-3.026622 -0.995263,-5.968394 -1.436288,-8.925594 0.05136,-0.08937 0.164902,-0.119467 0.259893,-0.09583 z"
       id="path4090" />
    <path
       inkscape:connector-curvature="0"
       style="fill:#ffffff;fill-opacity:1;stroke:none"
       d="m 92.535908,36.589352 c 9.079482,0.13063 17.828542,3.18033 26.886142,3.474451 1.66762,0.08767 3.26209,-0.554879 4.77399,-0.99167 1.09784,2.509058 2.44025,4.923294 3.71385,7.318278 -0.19668,1.081787 -1.7713,1.1519 -2.5101,1.764536 -8.19996,3.707929 -17.44468,4.598883 -26.366333,4.131049 -3.155446,-0.245518 -6.370287,-0.472035 -9.431702,-1.237878 3.55631,2.923586 7.708725,5.13338 11.724655,7.427773 6.85681,3.563879 13.7998,7.360044 21.44701,8.843504 1.93243,0.167756 4.32673,0.675788 5.95721,-0.59514 1.73792,-1.841986 0.46529,-4.631619 -0.37617,-6.586487 -1.60795,-3.622013 -4.24536,-6.621983 -6.25131,-9.999355 -0.34387,-0.760826 0.86052,-0.833949 1.01225,-0.157283 3.14165,4.475403 6.50325,9.073471 7.82865,14.460836 0.68446,2.392412 -0.23482,5.233594 -2.60327,6.269727 -3.22555,1.298898 -6.85767,0.668263 -10.20882,0.246899 -7.53875,-1.416609 -14.81694,-4.030083 -21.923229,-6.8744 -0.356959,-0.159039 -0.777915,-0.652961 -0.759189,0.116268 -2.191852,8.025046 -2.596504,16.528837 -1.217435,24.745406 1.843743,11.292424 6.234703,22.211704 6.046133,33.794044 0.21593,7.74666 -1.670631,15.34721 -4.19262,22.60456 -5.386211,3.95358 -12.474641,3.69714 -18.828284,3.20147 -3.81422,-0.39747 -7.689648,-0.65629 -11.443426,-1.36161 0.333981,-2.1479 1.453866,-4.2016 1.971839,-6.34439 3.96251,-13.08919 4.112793,-27.08432 2.015599,-40.53361 -1.393399,-10.328721 -3.924669,-20.512011 -4.564209,-30.934611 -0.488128,-8.157243 1.080533,-16.801322 6.318756,-23.284711 2.413603,-2.830959 4.966252,-5.869622 8.367944,-7.479949 3.979605,-1.61478 8.3181,-2.109079 12.612069,-2.017707 z"
       id="path4108" />
    <path
       inkscape:connector-curvature="0"
       style="fill:#ffffff;fill-opacity:1;stroke:none"
       d="m 96.044575,1.0580533 c 4.909225,2.726293 8.164665,8.0410372 8.296335,13.6721647 0.0565,2.101428 0.40503,4.372053 -0.28726,6.381356 -0.79908,0.468963 -2.24049,-0.02132 -1.9903,-1.14218 -0.24004,-3.086261 -0.28421,-6.940686 -3.118813,-8.809388 -0.48111,-0.27907 -1.097597,-0.551242 -1.607291,-0.574445 1.177599,3.299358 1.645383,6.826048 1.860361,10.31392 -1.616975,0.268095 -3.357781,0.187008 -5.006538,0.478808 -1.219592,-0.05581 -0.971201,-1.764913 -1.190073,-2.612721 C 92.695229,12.58715 93.793999,6.4530066 94.526209,0.33993446 95.023506,0.2205302 95.550891,0.88252151 96.044575,1.0580533 Z"
       id="path4110" />
    <path
       inkscape:connector-curvature="0"
       style="fill:#ffffff;fill-opacity:1;stroke:none"
       d="m 61.080961,11.194184 c 5.943949,3.319677 10.970625,8.80111 12.680464,15.491575 0.20071,1.861239 0.578314,3.944605 -0.07522,5.724695 -0.637402,-0.262953 -0.254116,-1.520837 -0.533481,-2.09986 -0.455812,-2.616484 -1.182591,-6.080148 -4.076358,-6.935231 -0.273319,-0.09733 -1.80202,-0.251664 -1.313183,-0.03449 2.365452,1.33966 2.826501,4.421595 3.604422,6.79858 0.786293,2.506298 0.670853,5.138209 0.328299,7.701325 -0.173343,0.43861 0.70562,1.587876 -0.07524,1.532062 -5.667739,-2.881381 -8.468948,-9.150732 -9.636884,-15.108528 -0.796265,-4.271337 -1.305464,-8.666781 -1.080646,-13.001959 0.02709,-0.06886 0.115158,-0.08937 0.177827,-0.06842 z m 6.087172,11.934971 c 0.319249,0.125487 0.492273,0.152077 0,0 z m -0.03418,0.04766 0.01367,-0.04139 -0.01367,0.04139 z m -0.04108,0.01442 c 0.01185,-0.02885 0.131219,-0.114952 0,0 z m 0,0 c 0.03418,0.01254 0.05801,-0.02007 0,0 z"
       id="path4112" />
    <path
       inkscape:connector-curvature="0"
       style="fill:#ffffff;fill-opacity:1;stroke:none"
       d="m 15.290383,39.646641 c 4.835873,1.977319 9.628412,4.27328 13.90474,7.297708 3.736231,3.299985 6.858546,7.292252 9.578806,11.465945 2.516452,4.066205 4.529361,8.788129 3.922406,13.66928 -1.099291,0.120722 -2.261495,-0.627374 -3.426596,-0.649699 -6.287964,-0.829245 -12.533967,0.752046 -18.795003,1.039582 -0.03217,-3.129345 0.992391,-6.351128 1.506124,-9.495963 0.927691,-4.237786 1.118976,-8.744795 -0.409894,-12.858912 -0.873005,-3.256964 -2.481401,-6.24113 -4.961372,-8.522856 -0.424851,-0.585607 -1.38832,-1.207337 -1.469676,-1.876729 0.0175,-0.09357 0.09382,-0.0777 0.150465,-0.06836 z"
       id="path4114" />
  </g>
</svg>
